<svg width="208" height="80" viewBox="0 0 208 80" fill="none" xmlns="http://www.w3.org/2000/svg">
<g style="mix-blend-mode:luminosity">
<rect x="89.4879" y="50.0482" width="69.76" height="28.544" rx="14.272" fill="#ABBED1"/>
<rect x="88.7202" y="47.2321" width="67.2" height="28.544" rx="14.272" fill="#F5F7FA"/>
<path d="M101.572 59.2896V61.5437H104.083C104.203 61.5437 104.308 61.5865 104.397 61.6721C104.482 61.7609 104.525 61.8671 104.525 61.9907C104.525 62.1112 104.482 62.2158 104.397 62.3046C104.308 62.3902 104.203 62.433 104.083 62.433H101.572V65.1531C101.572 65.2767 101.529 65.3813 101.444 65.4669C101.355 65.5557 101.25 65.6001 101.13 65.6001C101.006 65.6001 100.9 65.5557 100.811 65.4669C100.726 65.3813 100.683 65.2767 100.683 65.1531V58.8426C100.683 58.7189 100.726 58.6143 100.811 58.5287C100.9 58.44 101.006 58.3956 101.13 58.3956H104.558C104.679 58.3956 104.784 58.44 104.872 58.5287C104.958 58.6143 105.001 58.7189 105.001 58.8426C105.001 58.9662 104.958 59.0708 104.872 59.1564C104.784 59.2452 104.679 59.2896 104.558 59.2896H101.572ZM109.856 60.2359C109.98 60.2359 110.084 60.2787 110.17 60.3643C110.255 60.4531 110.298 60.5593 110.298 60.683V65.1578C110.298 65.2783 110.255 65.3829 110.17 65.4717C110.084 65.5573 109.98 65.6001 109.856 65.6001C109.732 65.6001 109.628 65.5573 109.542 65.4717C109.453 65.3829 109.409 65.2783 109.409 65.1578V65.0152C108.981 65.4051 108.493 65.6001 107.944 65.6001C107.294 65.6001 106.74 65.3385 106.28 64.8154C105.82 64.2892 105.59 63.6567 105.59 62.918V60.6687C105.59 60.545 105.633 60.4404 105.719 60.3548C105.808 60.2661 105.914 60.2217 106.037 60.2217C106.158 60.2217 106.262 60.2661 106.351 60.3548C106.437 60.4404 106.48 60.545 106.48 60.6687V62.918C106.48 63.4126 106.622 63.8342 106.908 64.183C107.196 64.5349 107.542 64.7108 107.944 64.7108C108.35 64.7108 108.696 64.5349 108.981 64.183C109.266 63.8342 109.409 63.4126 109.409 62.918V60.683C109.409 60.5593 109.453 60.4531 109.542 60.3643C109.628 60.2787 109.732 60.2359 109.856 60.2359ZM111.887 58.4194C112.007 58.4194 112.112 58.4637 112.2 58.5525C112.286 58.6381 112.329 58.7427 112.329 58.8664V65.1578C112.329 65.2815 112.286 65.3861 112.2 65.4717C112.112 65.5573 112.007 65.6001 111.887 65.6001C111.763 65.6001 111.657 65.5573 111.568 65.4717C111.482 65.3861 111.44 65.2815 111.44 65.1578V58.8664C111.44 58.7427 111.482 58.6381 111.568 58.5525C111.657 58.4637 111.763 58.4194 111.887 58.4194ZM114.017 58.4194C114.138 58.4194 114.242 58.4637 114.331 58.5525C114.416 58.6381 114.459 58.7427 114.459 58.8664V65.1578C114.459 65.2815 114.416 65.3861 114.331 65.4717C114.242 65.5573 114.138 65.6001 114.017 65.6001C113.893 65.6001 113.787 65.5573 113.698 65.4717C113.613 65.3861 113.57 65.2815 113.57 65.1578V58.8664C113.57 58.7427 113.613 58.6381 113.698 58.5525C113.787 58.4637 113.893 58.4194 114.017 58.4194ZM119.533 61.5627C119.657 61.5627 119.762 61.6055 119.847 61.6911C119.933 61.7799 119.976 61.8861 119.976 62.0097C119.976 62.1302 119.933 62.2348 119.847 62.3236C119.762 62.4092 119.657 62.452 119.533 62.452H116.005C115.881 62.452 115.775 62.4092 115.686 62.3236C115.601 62.2348 115.558 62.1302 115.558 62.0097C115.558 61.8861 115.601 61.7799 115.686 61.6911C115.775 61.6055 115.881 61.5627 116.005 61.5627H119.533ZM122.972 65.6001C122.499 65.6001 122.059 65.4638 121.65 65.1911C121.241 64.9153 120.949 64.5618 120.775 64.1307C120.73 64.0197 120.73 63.9103 120.775 63.8025C120.822 63.6947 120.9 63.6187 121.008 63.5743C121.119 63.5299 121.228 63.5315 121.336 63.579C121.443 63.6266 121.52 63.7043 121.564 63.812C121.675 64.0879 121.86 64.313 122.12 64.4873C122.383 64.6617 122.667 64.7489 122.972 64.7489C123.33 64.7489 123.634 64.6363 123.885 64.4112C124.138 64.183 124.265 63.9103 124.265 63.5933C124.265 63.2509 124.156 62.9973 123.937 62.8324C123.759 62.6993 123.398 62.5582 122.853 62.4092C122.231 62.238 121.787 62.0557 121.521 61.8623C121.058 61.5294 120.827 61.0507 120.827 60.4262C120.827 59.8745 121.036 59.4021 121.455 59.009C121.876 58.6159 122.382 58.4194 122.972 58.4194C123.469 58.4194 123.907 58.562 124.284 58.8473C124.665 59.1327 124.924 59.5131 125.064 59.9887C125.096 60.1028 125.085 60.2106 125.031 60.312C124.974 60.4166 124.888 60.4848 124.774 60.5165C124.663 60.5482 124.555 60.5371 124.451 60.4832C124.349 60.4262 124.281 60.3406 124.246 60.2264C124.16 59.9316 124.003 59.6986 123.775 59.5274C123.547 59.3562 123.279 59.2706 122.972 59.2706C122.616 59.2706 122.312 59.3831 122.059 59.6082C121.805 59.8365 121.678 60.1091 121.678 60.4262C121.678 60.759 121.787 61.0063 122.006 61.168C122.181 61.298 122.537 61.4375 123.076 61.5865C123.704 61.7609 124.153 61.9447 124.422 62.1381C124.885 62.4742 125.116 62.9592 125.116 63.5933C125.116 64.1449 124.907 64.6173 124.489 65.0104C124.07 65.4035 123.564 65.6001 122.972 65.6001ZM128.198 60.2359C128.321 60.2359 128.426 60.2803 128.512 60.3691C128.597 60.4547 128.64 60.5593 128.64 60.683C128.64 60.8066 128.597 60.9112 128.512 60.9968C128.426 61.0856 128.321 61.13 128.198 61.13H127.504V65.1578C127.504 65.2815 127.461 65.3861 127.375 65.4717C127.29 65.5573 127.185 65.6001 127.061 65.6001C126.938 65.6001 126.833 65.5573 126.747 65.4717C126.659 65.3861 126.614 65.2815 126.614 65.1578V61.13H125.925C125.801 61.13 125.695 61.0856 125.606 60.9968C125.52 60.9112 125.478 60.8066 125.478 60.683C125.478 60.5593 125.52 60.4547 125.606 60.3691C125.695 60.2803 125.801 60.2359 125.925 60.2359H126.614V58.8664C126.614 58.7427 126.659 58.6381 126.747 58.5525C126.833 58.4637 126.938 58.4194 127.061 58.4194C127.185 58.4194 127.29 58.4637 127.375 58.5525C127.461 58.6381 127.504 58.7427 127.504 58.8664V60.2359H128.198ZM133.999 60.2359C134.123 60.2359 134.228 60.2803 134.313 60.3691C134.399 60.4547 134.442 60.5593 134.442 60.683V65.1578C134.442 65.2815 134.399 65.3861 134.313 65.4717C134.228 65.5573 134.123 65.6001 133.999 65.6001C133.876 65.6001 133.771 65.5573 133.686 65.4717C133.597 65.3861 133.552 65.2815 133.552 65.1578V64.9248C133.055 65.375 132.473 65.6001 131.807 65.6001C131.078 65.6001 130.457 65.3385 129.943 64.8154C129.426 64.2923 129.168 63.6615 129.168 62.9228C129.168 62.1809 129.426 61.5484 129.943 61.0253C130.457 60.4991 131.078 60.2359 131.807 60.2359C132.473 60.2359 133.055 60.461 133.552 60.9112V60.683C133.552 60.5593 133.597 60.4547 133.686 60.3691C133.771 60.2803 133.876 60.2359 133.999 60.2359ZM131.807 64.7108C132.289 64.7108 132.701 64.5365 133.044 64.1877C133.383 63.8358 133.552 63.4142 133.552 62.9228C133.552 62.4282 133.383 62.005 133.044 61.6531C132.701 61.3043 132.289 61.13 131.807 61.13C131.325 61.13 130.913 61.3043 130.571 61.6531C130.228 62.005 130.057 62.4282 130.057 62.9228C130.057 63.4142 130.228 63.8358 130.571 64.1877C130.913 64.5365 131.325 64.7108 131.807 64.7108ZM137.847 61.13C137.365 61.13 136.953 61.3043 136.61 61.6531C136.268 62.005 136.097 62.4282 136.097 62.9228C136.097 63.4142 136.268 63.8358 136.61 64.1877C136.953 64.5365 137.365 64.7108 137.847 64.7108C138.436 64.7108 138.907 64.4651 139.259 63.9737C139.329 63.8755 139.425 63.8168 139.549 63.7978C139.578 63.7914 139.605 63.7883 139.63 63.7883C139.719 63.7883 139.801 63.8168 139.877 63.8739C139.979 63.9436 140.039 64.0403 140.058 64.1639C140.064 64.1925 140.067 64.2194 140.067 64.2448C140.067 64.3336 140.039 64.416 139.982 64.4921C139.452 65.2308 138.741 65.6001 137.847 65.6001C137.117 65.6001 136.496 65.3385 135.983 64.8154C135.466 64.2923 135.207 63.6615 135.207 62.9228C135.207 62.1809 135.466 61.5484 135.983 61.0253C136.496 60.4991 137.117 60.2359 137.847 60.2359C138.741 60.2359 139.452 60.6053 139.982 61.344C140.039 61.4232 140.067 61.5072 140.067 61.596C140.067 61.6214 140.064 61.6483 140.058 61.6768C140.039 61.7973 139.979 61.894 139.877 61.9669C139.801 62.024 139.719 62.0525 139.63 62.0525C139.605 62.0525 139.578 62.0494 139.549 62.043C139.425 62.024 139.329 61.9638 139.259 61.8623C138.907 61.3741 138.436 61.13 137.847 61.13ZM142.345 62.8324L144.528 64.825C144.617 64.9106 144.664 65.0136 144.671 65.1341C144.677 65.2577 144.637 65.3655 144.552 65.4574C144.466 65.5525 144.357 65.6001 144.224 65.6001C144.11 65.6001 144.01 65.5605 143.924 65.4812L141.703 63.4554V65.1531C141.703 65.2767 141.661 65.3829 141.575 65.4717C141.486 65.5573 141.382 65.6001 141.261 65.6001C141.137 65.6001 141.031 65.5573 140.942 65.4717C140.857 65.3829 140.814 65.2767 140.814 65.1531V58.8664C140.814 58.7427 140.857 58.6365 140.942 58.5477C141.031 58.4622 141.137 58.4194 141.261 58.4194C141.382 58.4194 141.486 58.4622 141.575 58.5477C141.661 58.6365 141.703 58.7427 141.703 58.8664V62.2095L143.796 60.3501C143.888 60.2676 143.995 60.2296 144.119 60.2359C144.24 60.2423 144.341 60.2914 144.423 60.3834C144.506 60.4753 144.544 60.5831 144.538 60.7067C144.531 60.8304 144.482 60.9318 144.39 61.0111L142.345 62.8324Z" fill="#47596B"/>
<rect x="17.936" y="51.4561" width="58.496" height="28.544" rx="14.272" fill="#263238"/>
<rect x="17.2959" y="48.64" width="56.32" height="28.544" rx="14.272" fill="#466884"/>
<path d="M31.0585 59.813C31.1632 59.8352 31.2503 59.886 31.3201 59.9652C31.3867 60.0476 31.4199 60.1428 31.4199 60.2505V66.561C31.4199 66.6847 31.3771 66.7893 31.2916 66.8749C31.2028 66.9637 31.0966 67.0081 30.9729 67.0081C30.8525 67.0081 30.7478 66.9637 30.6591 66.8749C30.5735 66.7893 30.5307 66.6847 30.5307 66.561V62.2906C30.2485 63.1466 29.9664 63.9218 29.6842 64.6161L28.833 66.7085C28.7569 66.8923 28.619 66.9843 28.4193 66.9843C28.2195 66.9843 28.0816 66.8923 28.0055 66.7085L27.1591 64.6161C26.8737 63.9218 26.59 63.1625 26.3078 62.3382V66.561C26.3078 66.6847 26.265 66.7893 26.1794 66.8749C26.0907 66.9637 25.986 67.0081 25.8656 67.0081C25.7419 67.0081 25.6357 66.9637 25.547 66.8749C25.4614 66.7893 25.4186 66.6847 25.4186 66.561V60.2505C25.4186 60.1428 25.4518 60.0476 25.5184 59.9652C25.5882 59.886 25.6754 59.8352 25.78 59.813C25.8085 59.8067 25.837 59.8035 25.8656 59.8035C25.9385 59.8035 26.0082 59.8226 26.0748 59.8606C26.1699 59.9113 26.2365 59.9858 26.2745 60.0841C27.3461 62.7218 28.061 64.5431 28.4193 65.5481C28.7775 64.5431 29.4924 62.7218 30.564 60.0841C30.602 59.9858 30.6686 59.9113 30.7637 59.8606C30.8303 59.8226 30.9 59.8035 30.9729 59.8035C31.0015 59.8035 31.03 59.8067 31.0585 59.813ZM37.2977 61.6439C37.4213 61.6439 37.526 61.6883 37.6116 61.777C37.6972 61.8626 37.74 61.9673 37.74 62.0909V66.5658C37.74 66.6894 37.6972 66.7941 37.6116 66.8797C37.526 66.9653 37.4213 67.0081 37.2977 67.0081C37.1741 67.0081 37.0694 66.9653 36.9838 66.8797C36.8951 66.7941 36.8507 66.6894 36.8507 66.5658V66.3328C36.3529 66.783 35.7712 67.0081 35.1054 67.0081C34.3763 67.0081 33.7549 66.7465 33.2413 66.2234C32.7245 65.7003 32.4661 65.0694 32.4661 64.3307C32.4661 63.5889 32.7245 62.9564 33.2413 62.4333C33.7549 61.907 34.3763 61.6439 35.1054 61.6439C35.7712 61.6439 36.3529 61.869 36.8507 62.3192V62.0909C36.8507 61.9673 36.8951 61.8626 36.9838 61.777C37.0694 61.6883 37.1741 61.6439 37.2977 61.6439ZM35.1054 66.1188C35.5873 66.1188 35.9995 65.9444 36.3418 65.5957C36.6811 65.2438 36.8507 64.8221 36.8507 64.3307C36.8507 63.8362 36.6811 63.4129 36.3418 63.061C35.9995 62.7123 35.5873 62.5379 35.1054 62.5379C34.6235 62.5379 34.2114 62.7123 33.869 63.061C33.5266 63.4129 33.3554 63.8362 33.3554 64.3307C33.3554 64.8221 33.5266 65.2438 33.869 65.5957C34.2114 65.9444 34.6235 66.1188 35.1054 66.1188ZM41.2114 61.6296C41.8899 61.6296 42.4701 61.8928 42.9519 62.419C43.4338 62.9421 43.6748 63.5746 43.6748 64.3165V66.5658C43.6748 66.6863 43.6304 66.7909 43.5416 66.8797C43.456 66.9653 43.3514 67.0081 43.2278 67.0081C43.1041 67.0081 42.9995 66.9653 42.9139 66.8797C42.8283 66.7909 42.7855 66.6863 42.7855 66.5658V64.3165C42.7855 63.8219 42.6317 63.3987 42.3242 63.0468C42.0135 62.698 41.6426 62.5237 41.2114 62.5237C40.7739 62.5237 40.4014 62.698 40.0939 63.0468C39.7864 63.3987 39.6326 63.8219 39.6326 64.3165V66.5515C39.6326 66.6752 39.5898 66.7798 39.5042 66.8654C39.4155 66.951 39.3108 66.9938 39.1904 66.9938C39.0667 66.9938 38.9605 66.951 38.8718 66.8654C38.7862 66.7798 38.7434 66.6752 38.7434 66.5515V62.0766C38.7434 61.953 38.7862 61.8484 38.8718 61.7628C38.9605 61.674 39.0667 61.6296 39.1904 61.6296C39.3108 61.6296 39.4155 61.674 39.5042 61.7628C39.5898 61.8484 39.6326 61.953 39.6326 62.0766V62.2526C40.0892 61.8373 40.6154 61.6296 41.2114 61.6296ZM49.4146 61.6439C49.5383 61.6439 49.6429 61.6883 49.7285 61.777C49.8141 61.8626 49.8569 61.9673 49.8569 62.0909V66.5658C49.8569 66.6894 49.8141 66.7941 49.7285 66.8797C49.6429 66.9653 49.5383 67.0081 49.4146 67.0081C49.291 67.0081 49.1863 66.9653 49.1008 66.8797C49.012 66.7941 48.9676 66.6894 48.9676 66.5658V66.3328C48.4699 66.783 47.8881 67.0081 47.2223 67.0081C46.4932 67.0081 45.8718 66.7465 45.3582 66.2234C44.8414 65.7003 44.5831 65.0694 44.5831 64.3307C44.5831 63.5889 44.8414 62.9564 45.3582 62.4333C45.8718 61.907 46.4932 61.6439 47.2223 61.6439C47.8881 61.6439 48.4699 61.869 48.9676 62.3192V62.0909C48.9676 61.9673 49.012 61.8626 49.1008 61.777C49.1863 61.6883 49.291 61.6439 49.4146 61.6439ZM47.2223 66.1188C47.7042 66.1188 48.1164 65.9444 48.4588 65.5957C48.798 65.2438 48.9676 64.8221 48.9676 64.3307C48.9676 63.8362 48.798 63.4129 48.4588 63.061C48.1164 62.7123 47.7042 62.5379 47.2223 62.5379C46.7405 62.5379 46.3283 62.7123 45.9859 63.061C45.6435 63.4129 45.4723 63.8362 45.4723 64.3307C45.4723 64.8221 45.6435 65.2438 45.9859 65.5957C46.3283 65.9444 46.7405 66.1188 47.2223 66.1188ZM52.1157 65.3484C52.4581 65.6718 52.8702 65.8335 53.3521 65.8335C53.834 65.8335 54.2446 65.6718 54.5838 65.3484C54.9262 65.0282 55.0974 64.6414 55.0974 64.1881C55.0974 63.7347 54.9262 63.3479 54.5838 63.0277C54.2446 62.7044 53.834 62.5427 53.3521 62.5427C52.8702 62.5427 52.4581 62.7044 52.1157 63.0277C51.7733 63.3479 51.6021 63.7347 51.6021 64.1881C51.6021 64.6414 51.7733 65.0282 52.1157 65.3484ZM55.2258 61.7818C55.3146 61.6962 55.4192 61.6534 55.5396 61.6534C55.6633 61.6534 55.7695 61.6962 55.8583 61.7818C55.9439 61.8706 55.9867 61.9768 55.9867 62.1004V66.1663C55.9867 66.16 55.9867 66.1648 55.9867 66.1806C55.9835 66.542 55.9122 66.886 55.7727 67.2125C55.6363 67.5296 55.4461 67.8117 55.202 68.059C54.9611 68.3031 54.6837 68.4918 54.3698 68.6249C54.0464 68.7644 53.7072 68.8342 53.3521 68.8342C52.5722 68.8342 51.8779 68.617 51.2692 68.1827C51.171 68.1097 51.1107 68.013 51.0885 67.8926C51.0695 67.7721 51.0965 67.6611 51.1694 67.5597C51.2391 67.4614 51.3342 67.4012 51.4547 67.379C51.5783 67.36 51.6893 67.3869 51.7876 67.4598C52.2409 67.7832 52.7625 67.9449 53.3521 67.9449C53.834 67.9449 54.2446 67.7689 54.5838 67.417C54.9262 67.0683 55.0974 66.6466 55.0974 66.1521V66.0855C54.5965 66.5103 54.0147 66.7227 53.3521 66.7227C52.9939 66.7227 52.6515 66.6562 52.325 66.523C52.0079 66.3962 51.7289 66.2155 51.488 65.9809C51.2439 65.7463 51.0552 65.4768 50.9221 65.1724C50.7826 64.8586 50.7129 64.5305 50.7129 64.1881C50.7129 63.8457 50.7826 63.5175 50.9221 63.2037C51.0552 62.8993 51.2439 62.6299 51.488 62.3953C51.7289 62.1607 52.0079 61.9799 52.325 61.8531C52.6515 61.72 52.9939 61.6534 53.3521 61.6534C54.0147 61.6534 54.5965 61.8658 55.0974 62.2906V62.1004C55.0974 61.9768 55.1402 61.8706 55.2258 61.7818ZM61.2082 63.8885C61.1067 63.4954 60.8959 63.172 60.5757 62.9184C60.246 62.6616 59.8735 62.5332 59.4581 62.5332C59.0397 62.5332 58.6656 62.6616 58.3359 62.9184C58.0157 63.172 57.8048 63.4954 57.7034 63.8885H61.2082ZM59.4581 67.0081C58.7131 67.0081 58.0759 66.7465 57.5465 66.2234C57.2992 65.9761 57.1074 65.694 56.971 65.3769C56.8284 65.0441 56.757 64.6969 56.757 64.3355C56.757 63.5936 57.0202 62.9596 57.5465 62.4333C57.7969 62.186 58.0838 61.9942 58.4072 61.8579C58.7401 61.7152 59.0904 61.6439 59.4581 61.6439C60.2 61.6439 60.8356 61.907 61.3651 62.4333C61.6124 62.6806 61.8042 62.9659 61.9405 63.2893C62.0832 63.6222 62.1545 63.9709 62.1545 64.3355C62.1545 64.4591 62.1117 64.5637 62.0261 64.6493C61.9373 64.7381 61.8311 64.7825 61.7075 64.7825H57.7034C57.8048 65.1693 58.0172 65.4879 58.3406 65.7383C58.6672 65.992 59.0397 66.1188 59.4581 66.1188C60.1176 66.1188 60.6264 65.9175 60.9846 65.5148C61.0639 65.4229 61.1654 65.3738 61.289 65.3674C61.4126 65.3611 61.5204 65.3975 61.6124 65.4768C61.7043 65.5592 61.7534 65.6623 61.7598 65.7859C61.7661 65.9064 61.7281 66.0126 61.6457 66.1045C61.113 66.7069 60.3839 67.0081 59.4581 67.0081ZM65.3359 61.6439C65.4595 61.6439 65.5642 61.6883 65.6498 61.777C65.7385 61.8626 65.7829 61.9673 65.7829 62.0909C65.7829 62.2146 65.7385 62.3192 65.6498 62.4048C65.5642 62.4935 65.4595 62.5379 65.3359 62.5379C64.9016 62.5379 64.5306 62.7123 64.2231 63.061C63.9156 63.4129 63.7618 63.8362 63.7618 64.3307V66.5658C63.7618 66.6894 63.719 66.7941 63.6334 66.8797C63.5447 66.9653 63.4401 67.0081 63.3196 67.0081C63.1959 67.0081 63.0897 66.9653 63.001 66.8797C62.9154 66.7941 62.8726 66.6894 62.8726 66.5658V62.0909C62.8726 61.9673 62.9154 61.8626 63.001 61.777C63.0897 61.6883 63.1959 61.6439 63.3196 61.6439C63.4401 61.6439 63.5447 61.6883 63.6334 61.777C63.719 61.8626 63.7618 61.9673 63.7618 62.0909V62.2669C64.2184 61.8516 64.743 61.6439 65.3359 61.6439Z" fill="#F5F7FA"/>
<rect x="151.696" y="22.656" width="55.936" height="28.544" rx="14.272" fill="#4D4D4D"/>
<rect x="151.056" y="19.84" width="53.888" height="28.544" rx="14.272" fill="url(#paint0_linear_657_8689)"/>
<path d="M165.035 31.0273C166.027 31.0273 166.874 31.3792 167.575 32.083C168.275 32.7836 168.625 33.6301 168.625 34.6224C168.625 35.6115 168.275 36.4564 167.575 37.1571C166.874 37.8577 166.027 38.208 165.035 38.208H163.466C163.342 38.208 163.236 38.1652 163.147 38.0796C163.062 37.994 163.019 37.8894 163.019 37.7657V31.4743C163.019 31.3506 163.062 31.246 163.147 31.1604C163.236 31.0716 163.342 31.0273 163.466 31.0273H165.035ZM165.035 37.3187C165.78 37.3187 166.417 37.0556 166.947 36.5293C167.473 35.9999 167.736 35.3642 167.736 34.6224C167.736 33.8774 167.473 33.2401 166.947 32.7107C166.417 32.1844 165.78 31.9213 165.035 31.9213H163.908V37.3187H165.035ZM173.652 35.0884C173.551 34.6953 173.34 34.3719 173.02 34.1183C172.69 33.8615 172.317 33.7331 171.902 33.7331C171.483 33.7331 171.109 33.8615 170.78 34.1183C170.459 34.3719 170.249 34.6953 170.147 35.0884H173.652ZM171.902 38.208C171.157 38.208 170.52 37.9465 169.99 37.4234C169.743 37.1761 169.551 36.8939 169.415 36.5769C169.272 36.244 169.201 35.8969 169.201 35.5354C169.201 34.7936 169.464 34.1595 169.99 33.6333C170.241 33.386 170.528 33.1942 170.851 33.0578C171.184 32.9152 171.534 32.8438 171.902 32.8438C172.644 32.8438 173.279 33.107 173.809 33.6333C174.056 33.8805 174.248 34.1659 174.384 34.4892C174.527 34.8221 174.598 35.1709 174.598 35.5354C174.598 35.6591 174.556 35.7637 174.47 35.8493C174.381 35.9381 174.275 35.9825 174.151 35.9825H170.147C170.249 36.3692 170.461 36.6878 170.784 36.9383C171.111 37.1919 171.483 37.3187 171.902 37.3187C172.561 37.3187 173.07 37.1174 173.428 36.7148C173.508 36.6229 173.609 36.5737 173.733 36.5674C173.856 36.561 173.964 36.5975 174.056 36.6767C174.148 36.7592 174.197 36.8622 174.204 36.9859C174.21 37.1063 174.172 37.2125 174.089 37.3045C173.557 37.9068 172.828 38.208 171.902 38.208ZM179.273 32.8819C179.387 32.9294 179.466 33.0103 179.511 33.1244C179.533 33.1783 179.544 33.2338 179.544 33.2909C179.544 33.3479 179.531 33.4066 179.506 33.4668L177.604 37.9417C177.528 38.1192 177.391 38.208 177.195 38.208C176.998 38.208 176.862 38.1192 176.786 37.9417L174.879 33.4668C174.854 33.4066 174.841 33.3479 174.841 33.2909C174.841 33.2338 174.852 33.1783 174.874 33.1244C174.922 33.0103 175.003 32.9294 175.117 32.8819C175.174 32.8565 175.231 32.8438 175.288 32.8438C175.345 32.8438 175.4 32.8549 175.454 32.8771C175.568 32.9247 175.649 33.0039 175.697 33.1149L177.195 36.6292L178.688 33.1149C178.736 33.0039 178.816 32.9247 178.931 32.8771C178.984 32.8549 179.04 32.8438 179.097 32.8438C179.154 32.8438 179.213 32.8565 179.273 32.8819ZM183.41 31.0273C184.383 31.0273 185.216 31.3792 185.907 32.083C186.595 32.7836 186.939 33.6301 186.939 34.6224C186.939 35.6115 186.595 36.4564 185.907 37.1571C185.216 37.8577 184.383 38.208 183.41 38.208C182.437 38.208 181.606 37.8577 180.918 37.1571C180.227 36.4564 179.882 35.6115 179.882 34.6224C179.882 33.6301 180.227 32.7836 180.918 32.083C181.606 31.3792 182.437 31.0273 183.41 31.0273ZM183.41 37.3187C184.139 37.3187 184.761 37.0556 185.274 36.5293C185.791 35.9999 186.049 35.3642 186.049 34.6224C186.049 33.8774 185.791 33.2401 185.274 32.7107C184.761 32.1844 184.139 31.9213 183.41 31.9213C182.684 31.9213 182.063 32.1844 181.546 32.7107C181.029 33.2401 180.771 33.8774 180.771 34.6224C180.771 35.3642 181.029 35.9999 181.546 36.5293C182.063 37.0556 182.684 37.3187 183.41 37.3187ZM190.386 32.8391C191.112 32.8391 191.734 33.1022 192.251 33.6285C192.764 34.1516 193.021 34.7841 193.021 35.5259C193.021 36.2646 192.764 36.8955 192.251 37.4186C191.734 37.9417 191.112 38.2033 190.386 38.2033C189.721 38.2033 189.137 37.9782 188.636 37.528V39.5776C188.636 39.7012 188.594 39.8058 188.508 39.8914C188.419 39.977 188.315 40.0198 188.194 40.0198C188.071 40.0198 187.964 39.977 187.876 39.8914C187.79 39.8058 187.747 39.7012 187.747 39.5776V33.2861C187.747 33.1625 187.79 33.0578 187.876 32.9722C187.964 32.8835 188.071 32.8391 188.194 32.8391C188.315 32.8391 188.419 32.8835 188.508 32.9722C188.594 33.0578 188.636 33.1625 188.636 33.2861V33.5144C189.137 33.0642 189.721 32.8391 190.386 32.8391ZM190.386 37.314C190.868 37.314 191.28 37.1396 191.623 36.7909C191.962 36.439 192.132 36.0173 192.132 35.5259C192.132 35.0314 191.962 34.6081 191.623 34.2562C191.28 33.9075 190.868 33.7331 190.386 33.7331C189.905 33.7331 189.492 33.9075 189.15 34.2562C188.808 34.6081 188.636 35.0314 188.636 35.5259C188.636 36.0173 188.808 36.439 189.15 36.7909C189.492 37.1396 189.905 37.314 190.386 37.314ZM195.37 38.208C195.012 38.208 194.671 38.1002 194.348 37.8846C194.078 37.7039 193.861 37.4804 193.696 37.2141C193.633 37.1095 193.615 36.9985 193.644 36.8812C193.672 36.7608 193.737 36.6672 193.839 36.6007C193.944 36.5373 194.056 36.5198 194.177 36.5484C194.297 36.5769 194.389 36.6435 194.452 36.7481C194.547 36.9003 194.674 37.0287 194.833 37.1333C195.01 37.2569 195.189 37.3187 195.37 37.3187C195.583 37.3187 195.763 37.2522 195.912 37.119C196.064 36.989 196.141 36.8305 196.141 36.6435C196.141 36.4532 196.079 36.3122 195.955 36.2202C195.847 36.1378 195.611 36.0474 195.247 35.9492C194.787 35.8224 194.454 35.6829 194.248 35.5307C193.886 35.2707 193.706 34.8966 193.706 34.4084C193.706 33.9772 193.869 33.6079 194.196 33.3004C194.519 32.996 194.91 32.8438 195.37 32.8438C195.7 32.8438 196.004 32.9294 196.283 33.1006C196.559 33.2718 196.762 33.5001 196.892 33.7854C196.946 33.8964 196.951 34.0105 196.906 34.1278C196.865 34.242 196.787 34.3244 196.673 34.3751C196.562 34.4258 196.45 34.4306 196.336 34.3894C196.221 34.3482 196.137 34.2705 196.083 34.1564C196.026 34.0295 195.933 33.9265 195.803 33.8472C195.673 33.7712 195.529 33.7331 195.37 33.7331C195.158 33.7331 194.975 33.7997 194.823 33.9328C194.674 34.0628 194.6 34.2213 194.6 34.4084C194.6 34.5954 194.658 34.7334 194.776 34.8221C194.884 34.8982 195.12 34.987 195.484 35.0884C195.947 35.2184 196.282 35.3579 196.488 35.5069C196.849 35.7732 197.03 36.1521 197.03 36.6435C197.03 37.0746 196.868 37.444 196.545 37.7515C196.218 38.0558 195.827 38.208 195.37 38.208Z" fill="#F5F7FA"/>
<rect x="1.68005" y="9.72791" width="69.76" height="28.544" rx="14.272" fill="#ABBED1"/>
<rect x="0.911987" y="6.91211" width="67.2" height="28.544" rx="14.272" fill="#F5F7FA"/>
<path d="M11.1572 18.0993C11.2809 18.0993 11.3855 18.1437 11.4711 18.2324C11.5567 18.318 11.5995 18.4227 11.5995 18.5463V22.9736C11.5995 23.6109 11.3744 24.1546 10.9242 24.6048C10.474 25.0549 9.9303 25.28 9.29307 25.28C8.65584 25.28 8.11213 25.0549 7.66195 24.6048C7.21176 24.1514 6.98667 23.6077 6.98667 22.9736V18.5463C6.98667 18.4227 7.02947 18.318 7.11507 18.2324C7.20384 18.1437 7.31004 18.0993 7.43368 18.0993C7.55416 18.0993 7.65878 18.1437 7.74754 18.2324C7.83314 18.318 7.87594 18.4227 7.87594 18.5463V22.9736C7.87594 23.3636 8.01544 23.698 8.29442 23.977C8.57024 24.2528 8.90312 24.3908 9.29307 24.3908C9.68302 24.3908 10.0175 24.2528 10.2965 23.977C10.5723 23.7012 10.7102 23.3667 10.7102 22.9736V18.5463C10.7102 18.4227 10.7546 18.318 10.8433 18.2324C10.9289 18.1437 11.0336 18.0993 11.1572 18.0993ZM13.2353 18.0755C13.3558 18.0755 13.4604 18.1199 13.5492 18.2087C13.6348 18.2943 13.6776 18.3989 13.6776 18.5225V24.833C13.6776 24.9567 13.6348 25.0613 13.5492 25.1469C13.4604 25.2356 13.3558 25.28 13.2353 25.28C13.1117 25.28 13.0055 25.2356 12.9167 25.1469C12.8311 25.0613 12.7883 24.9567 12.7883 24.833V18.5225C12.7883 18.3989 12.8311 18.2943 12.9167 18.2087C13.0055 18.1199 13.1117 18.0755 13.2353 18.0755ZM17.2727 18.0517C17.39 18.0929 17.474 18.169 17.5248 18.28C17.5565 18.3434 17.5723 18.4068 17.5723 18.4702C17.5723 18.5209 17.5628 18.5717 17.5438 18.6224L15.2136 25.1041C15.1439 25.3006 15.0044 25.3989 14.7951 25.3989C14.7444 25.3989 14.6953 25.391 14.6477 25.3751C14.5304 25.3339 14.4464 25.2578 14.3957 25.1469C14.364 25.0835 14.3481 25.0201 14.3481 24.9567C14.3481 24.9059 14.3576 24.8552 14.3767 24.8045L16.7068 18.318C16.748 18.2039 16.8241 18.1199 16.9351 18.066C16.9953 18.0375 17.0572 18.0232 17.1206 18.0232C17.1713 18.0232 17.222 18.0327 17.2727 18.0517ZM22.3611 18.0993C22.4847 18.0993 22.5893 18.1437 22.6749 18.2324C22.7605 18.318 22.8033 18.4227 22.8033 18.5463V22.9736C22.8033 23.6109 22.5782 24.1546 22.1281 24.6048C21.6779 25.0549 21.1342 25.28 20.4969 25.28C19.8597 25.28 19.316 25.0549 18.8658 24.6048C18.4156 24.1514 18.1905 23.6077 18.1905 22.9736V18.5463C18.1905 18.4227 18.2333 18.318 18.3189 18.2324C18.4077 18.1437 18.5139 18.0993 18.6376 18.0993C18.758 18.0993 18.8626 18.1437 18.9514 18.2324C19.037 18.318 19.0798 18.4227 19.0798 18.5463V22.9736C19.0798 23.3636 19.2193 23.698 19.4983 23.977C19.7741 24.2528 20.107 24.3908 20.4969 24.3908C20.8869 24.3908 21.2214 24.2528 21.5003 23.977C21.7762 23.7012 21.9141 23.3667 21.9141 22.9736V18.5463C21.9141 18.4227 21.9584 18.318 22.0472 18.2324C22.1328 18.1437 22.2374 18.0993 22.3611 18.0993ZM26.4175 21.6897L28.2864 24.5952C28.3339 24.6682 28.3577 24.7458 28.3577 24.8283C28.3577 24.8631 28.353 24.898 28.3434 24.9329C28.3181 25.0534 28.2547 25.1469 28.1532 25.2135C28.0771 25.2578 27.9963 25.28 27.9107 25.28C27.749 25.28 27.6238 25.2119 27.535 25.0755L25.8896 22.5171L24.2442 25.0755C24.1555 25.2119 24.0302 25.28 23.8686 25.28C23.7798 25.28 23.6989 25.2578 23.626 25.2135C23.5246 25.1469 23.4596 25.0534 23.4311 24.9329C23.4247 24.9012 23.4215 24.8679 23.4215 24.833C23.4215 24.7506 23.4453 24.6713 23.4929 24.5952L25.3618 21.6897L23.4929 18.7888C23.4453 18.7127 23.4215 18.6335 23.4215 18.5511C23.4215 18.5162 23.4247 18.4829 23.4311 18.4512C23.4564 18.3307 23.5214 18.2372 23.626 18.1706C23.6989 18.1231 23.7766 18.0993 23.859 18.0993C23.8939 18.0993 23.9288 18.104 23.9637 18.1135C24.081 18.1389 24.1729 18.2023 24.2395 18.3038L25.8896 20.867L27.535 18.3038C27.6016 18.2023 27.6951 18.1389 27.8156 18.1135C27.8505 18.104 27.8853 18.0993 27.9202 18.0993C28.0026 18.0993 28.0787 18.1231 28.1485 18.1706C28.2531 18.2372 28.3181 18.3307 28.3434 18.4512C28.3498 18.4829 28.353 18.5162 28.353 18.5511C28.353 18.6335 28.3292 18.7127 28.2816 18.7888L26.4175 21.6897ZM34.6349 18.0993C35.6272 18.0993 36.4737 18.4512 37.1743 19.155C37.875 19.8556 38.2253 20.7021 38.2253 21.6944C38.2253 22.6835 37.875 23.5284 37.1743 24.2291C36.4737 24.9297 35.6272 25.28 34.6349 25.28H33.0656C32.942 25.28 32.8358 25.2372 32.747 25.1516C32.6614 25.066 32.6186 24.9614 32.6186 24.8378V18.5463C32.6186 18.4227 32.6614 18.318 32.747 18.2324C32.8358 18.1437 32.942 18.0993 33.0656 18.0993H34.6349ZM34.6349 24.3908C35.3799 24.3908 36.0172 24.1276 36.5466 23.6014C37.0729 23.0719 37.336 22.4363 37.336 21.6944C37.336 20.9494 37.0729 20.3122 36.5466 19.7827C36.0172 19.2564 35.3799 18.9933 34.6349 18.9933H33.5079V24.3908H34.6349ZM43.2518 22.1604C43.1504 21.7673 42.9395 21.444 42.6193 21.1903C42.2896 20.9335 41.9171 20.8051 41.5018 20.8051C41.0833 20.8051 40.7092 20.9335 40.3795 21.1903C40.0593 21.444 39.8485 21.7673 39.747 22.1604H43.2518ZM41.5018 25.28C40.7568 25.28 40.1196 25.0185 39.5901 24.4954C39.3428 24.2481 39.151 23.9659 39.0147 23.6489C38.872 23.316 38.8007 22.9689 38.8007 22.6075C38.8007 21.8656 39.0638 21.2315 39.5901 20.7053C39.8406 20.458 40.1275 20.2662 40.4509 20.1299C40.7837 19.9872 41.1341 19.9159 41.5018 19.9159C42.2437 19.9159 42.8793 20.179 43.4087 20.7053C43.656 20.9526 43.8478 21.2379 43.9842 21.5613C44.1268 21.8941 44.1982 22.2429 44.1982 22.6075C44.1982 22.7311 44.1554 22.8357 44.0698 22.9213C43.981 23.0101 43.8748 23.0545 43.7511 23.0545H39.747C39.8485 23.4413 40.0609 23.7599 40.3843 24.0103C40.7108 24.2639 41.0833 24.3908 41.5018 24.3908C42.1612 24.3908 42.6701 24.1894 43.0283 23.7868C43.1076 23.6949 43.209 23.6457 43.3327 23.6394C43.4563 23.6331 43.5641 23.6695 43.656 23.7488C43.748 23.8312 43.7971 23.9342 43.8035 24.0579C43.8098 24.1783 43.7717 24.2846 43.6893 24.3765C43.1567 24.9789 42.4275 25.28 41.5018 25.28ZM46.3381 25.28C45.9799 25.28 45.6391 25.1722 45.3157 24.9567C45.0462 24.776 44.829 24.5524 44.6642 24.2861C44.6008 24.1815 44.5833 24.0706 44.6119 23.9533C44.6404 23.8328 44.7054 23.7393 44.8069 23.6727C44.9115 23.6093 45.024 23.5918 45.1445 23.6204C45.265 23.6489 45.3569 23.7155 45.4203 23.8201C45.5154 23.9723 45.6422 24.1007 45.8007 24.2053C45.9783 24.3289 46.1574 24.3908 46.3381 24.3908C46.5505 24.3908 46.7312 24.3242 46.8802 24.191C47.0324 24.061 47.1085 23.9025 47.1085 23.7155C47.1085 23.5253 47.0467 23.3842 46.923 23.2922C46.8152 23.2098 46.5791 23.1195 46.2145 23.0212C45.7548 22.8944 45.4219 22.7549 45.2158 22.6027C44.8544 22.3427 44.6737 21.9686 44.6737 21.4804C44.6737 21.0493 44.837 20.6799 45.1635 20.3724C45.4869 20.068 45.8784 19.9159 46.3381 19.9159C46.6678 19.9159 46.9722 20.0015 47.2512 20.1727C47.527 20.3439 47.7299 20.5721 47.8599 20.8575C47.9138 20.9684 47.9185 21.0825 47.8741 21.1998C47.8329 21.314 47.7552 21.3964 47.6411 21.4471C47.5301 21.4979 47.4176 21.5026 47.3035 21.4614C47.1893 21.4202 47.1053 21.3425 47.0514 21.2284C46.9944 21.1016 46.9008 20.9985 46.7709 20.9193C46.6409 20.8432 46.4966 20.8051 46.3381 20.8051C46.1257 20.8051 45.9434 20.8717 45.7912 21.0049C45.6422 21.1349 45.5677 21.2934 45.5677 21.4804C45.5677 21.6675 45.6264 21.8054 45.7437 21.8941C45.8515 21.9702 46.0877 22.059 46.4522 22.1604C46.9151 22.2904 47.2496 22.4299 47.4556 22.5789C47.8171 22.8452 47.9978 23.2241 47.9978 23.7155C47.9978 24.1466 47.8361 24.516 47.5127 24.8235C47.1862 25.1279 46.7946 25.28 46.3381 25.28ZM49.2437 19.9159C49.3673 19.9159 49.472 19.9603 49.5576 20.049C49.6463 20.1346 49.6907 20.2392 49.6907 20.3629V24.8378C49.6907 24.9614 49.6463 25.066 49.5576 25.1516C49.472 25.2372 49.3673 25.28 49.2437 25.28C49.1201 25.28 49.0154 25.2372 48.9298 25.1516C48.8411 25.066 48.7967 24.9614 48.7967 24.8378V20.3629C48.7967 20.2392 48.8411 20.1346 48.9298 20.049C49.0154 19.9603 49.1201 19.9159 49.2437 19.9159ZM49.2437 18.1088C49.3388 18.1088 49.4307 18.1342 49.5195 18.1849C49.6115 18.2324 49.6828 18.3022 49.7335 18.3941C49.7874 18.4861 49.8144 18.5812 49.8144 18.6794C49.8144 18.7777 49.789 18.8728 49.7383 18.9648C49.6875 19.0535 49.6162 19.1233 49.5243 19.174C49.4355 19.2247 49.342 19.2501 49.2437 19.2501C49.1454 19.2501 49.0503 19.2247 48.9584 19.174C48.8696 19.1233 48.7999 19.0535 48.7491 18.9648C48.6984 18.8728 48.673 18.7777 48.673 18.6794C48.673 18.5812 48.6984 18.4861 48.7491 18.3941C48.7999 18.3022 48.8712 18.2324 48.9631 18.1849C49.0551 18.1342 49.1486 18.1088 49.2437 18.1088ZM52.0684 23.6204C52.4108 23.9437 52.823 24.1054 53.3049 24.1054C53.7868 24.1054 54.1973 23.9437 54.5365 23.6204C54.8789 23.3002 55.0501 22.9134 55.0501 22.46C55.0501 22.0067 54.8789 21.6199 54.5365 21.2997C54.1973 20.9763 53.7868 20.8147 53.3049 20.8147C52.823 20.8147 52.4108 20.9763 52.0684 21.2997C51.7261 21.6199 51.5549 22.0067 51.5549 22.46C51.5549 22.9134 51.7261 23.3002 52.0684 23.6204ZM55.1785 20.0538C55.2673 19.9682 55.3719 19.9254 55.4924 19.9254C55.616 19.9254 55.7222 19.9682 55.811 20.0538C55.8966 20.1425 55.9394 20.2488 55.9394 20.3724V24.4383C55.9394 24.432 55.9394 24.4367 55.9394 24.4526C55.9362 24.814 55.8649 25.158 55.7254 25.4845C55.5891 25.8015 55.3989 26.0837 55.1547 26.331C54.9138 26.5751 54.6364 26.7637 54.3225 26.8969C53.9992 27.0364 53.6599 27.1061 53.3049 27.1061C52.525 27.1061 51.8307 26.889 51.222 26.4546C51.1237 26.3817 51.0635 26.285 51.0413 26.1645C51.0222 26.0441 51.0492 25.9331 51.1221 25.8317C51.1919 25.7334 51.287 25.6731 51.4074 25.651C51.5311 25.6319 51.642 25.6589 51.7403 25.7318C52.1937 26.0552 52.7152 26.2169 53.3049 26.2169C53.7868 26.2169 54.1973 26.0409 54.5365 25.689C54.8789 25.3403 55.0501 24.9186 55.0501 24.424V24.3575C54.5492 24.7823 53.9675 24.9947 53.3049 24.9947C52.9466 24.9947 52.6042 24.9281 52.2777 24.795C51.9607 24.6682 51.6817 24.4875 51.4407 24.2528C51.1966 24.0182 51.008 23.7488 50.8748 23.4444C50.7353 23.1306 50.6656 22.8024 50.6656 22.46C50.6656 22.1176 50.7353 21.7895 50.8748 21.4757C51.008 21.1713 51.1966 20.9018 51.4407 20.6672C51.6817 20.4326 51.9607 20.2519 52.2777 20.1251C52.6042 19.992 52.9466 19.9254 53.3049 19.9254C53.9675 19.9254 54.5492 20.1378 55.0501 20.5626V20.3724C55.0501 20.2488 55.0929 20.1425 55.1785 20.0538ZM59.5107 19.9016C60.1892 19.9016 60.7694 20.1647 61.2512 20.691C61.7331 21.2141 61.9741 21.8466 61.9741 22.5884V24.8378C61.9741 24.9582 61.9297 25.0629 61.8409 25.1516C61.7553 25.2372 61.6507 25.28 61.5271 25.28C61.4034 25.28 61.2988 25.2372 61.2132 25.1516C61.1276 25.0629 61.0848 24.9582 61.0848 24.8378V22.5884C61.0848 22.0939 60.931 21.6706 60.6235 21.3187C60.3128 20.97 59.9419 20.7956 59.5107 20.7956C59.0732 20.7956 58.7007 20.97 58.3932 21.3187C58.0857 21.6706 57.9319 22.0939 57.9319 22.5884V24.8235C57.9319 24.9471 57.8891 25.0518 57.8035 25.1374C57.7148 25.223 57.6101 25.2658 57.4897 25.2658C57.366 25.2658 57.2598 25.223 57.1711 25.1374C57.0855 25.0518 57.0427 24.9471 57.0427 24.8235V20.3486C57.0427 20.225 57.0855 20.1204 57.1711 20.0348C57.2598 19.946 57.366 19.9016 57.4897 19.9016C57.6101 19.9016 57.7148 19.946 57.8035 20.0348C57.8891 20.1204 57.9319 20.225 57.9319 20.3486V20.5246C58.3885 20.1093 58.9147 19.9016 59.5107 19.9016Z" fill="#47596B"/>
<rect x="51.3441" y="26.88" width="69.76" height="28.544" rx="14.272" fill="#4D4D4D"/>
<rect x="50.576" y="24.0641" width="67.2" height="28.544" rx="14.272" fill="url(#paint1_linear_657_8689)"/>
<path d="M62.4039 36.1216V38.3757H64.9148C65.0353 38.3757 65.1399 38.4185 65.2286 38.5041C65.3142 38.5929 65.357 38.6991 65.357 38.8227C65.357 38.9432 65.3142 39.0478 65.2286 39.1366C65.1399 39.2222 65.0353 39.265 64.9148 39.265H62.4039V41.9851C62.4039 42.1088 62.3611 42.2134 62.2755 42.299C62.1867 42.3877 62.0821 42.4321 61.9616 42.4321C61.838 42.4321 61.7318 42.3877 61.643 42.299C61.5574 42.2134 61.5146 42.1088 61.5146 41.9851V35.6746C61.5146 35.551 61.5574 35.4464 61.643 35.3608C61.7318 35.272 61.838 35.2276 61.9616 35.2276H65.3903C65.5108 35.2276 65.6154 35.272 65.7042 35.3608C65.7898 35.4464 65.8326 35.551 65.8326 35.6746C65.8326 35.7983 65.7898 35.9029 65.7042 35.9885C65.6154 36.0772 65.5108 36.1216 65.3903 36.1216H62.4039ZM68.9807 37.068C69.1043 37.068 69.209 37.1124 69.2946 37.2011C69.3833 37.2867 69.4277 37.3913 69.4277 37.515C69.4277 37.6386 69.3833 37.7432 69.2946 37.8288C69.209 37.9176 69.1043 37.962 68.9807 37.962C68.5464 37.962 68.1754 38.1364 67.8679 38.4851C67.5604 38.837 67.4066 39.2602 67.4066 39.7548V41.9899C67.4066 42.1135 67.3638 42.2181 67.2782 42.3037C67.1895 42.3893 67.0849 42.4321 66.9644 42.4321C66.8407 42.4321 66.7345 42.3893 66.6458 42.3037C66.5602 42.2181 66.5174 42.1135 66.5174 41.9899V37.515C66.5174 37.3913 66.5602 37.2867 66.6458 37.2011C66.7345 37.1124 66.8407 37.068 66.9644 37.068C67.0849 37.068 67.1895 37.1124 67.2782 37.2011C67.3638 37.2867 67.4066 37.3913 67.4066 37.515V37.6909C67.8632 37.2756 68.3879 37.068 68.9807 37.068ZM72.3048 37.068C73.0308 37.068 73.6521 37.3311 74.1689 37.8574C74.6857 38.3805 74.944 39.013 74.944 39.7548C74.944 40.4935 74.6857 41.1244 74.1689 41.6475C73.6521 42.1706 73.0308 42.4321 72.3048 42.4321C71.5756 42.4321 70.9542 42.1706 70.4406 41.6475C69.9239 41.1244 69.6655 40.4935 69.6655 39.7548C69.6655 39.013 69.9239 38.3805 70.4406 37.8574C70.9542 37.3311 71.5756 37.068 72.3048 37.068ZM72.3048 41.5429C72.7867 41.5429 73.1988 41.3685 73.5412 41.0198C73.8836 40.6679 74.0548 40.2462 74.0548 39.7548C74.0548 39.2602 73.8836 38.837 73.5412 38.4851C73.1988 38.1364 72.7867 37.962 72.3048 37.962C71.8229 37.962 71.4107 38.1364 71.0683 38.4851C70.726 38.837 70.5548 39.2602 70.5548 39.7548C70.5548 40.2462 70.726 40.6679 71.0683 41.0198C71.4107 41.3685 71.8229 41.5429 72.3048 41.5429ZM78.1255 37.0537C78.8039 37.0537 79.3841 37.3168 79.8659 37.8431C80.3478 38.3662 80.5888 38.9987 80.5888 39.7405V41.9899C80.5888 42.1103 80.5444 42.215 80.4556 42.3037C80.37 42.3893 80.2654 42.4321 80.1418 42.4321C80.0181 42.4321 79.9135 42.3893 79.8279 42.3037C79.7423 42.215 79.6995 42.1103 79.6995 41.9899V39.7405C79.6995 39.246 79.5457 38.8227 79.2382 38.4708C78.9275 38.1221 78.5566 37.9477 78.1255 37.9477C77.6879 37.9477 77.3154 38.1221 77.0079 38.4708C76.7004 38.8227 76.5466 39.246 76.5466 39.7405V41.9756C76.5466 42.0992 76.5038 42.2039 76.4182 42.2895C76.3295 42.3751 76.2249 42.4179 76.1044 42.4179C75.9807 42.4179 75.8745 42.3751 75.7858 42.2895C75.7002 42.2039 75.6574 42.0992 75.6574 41.9756V37.5007C75.6574 37.3771 75.7002 37.2725 75.7858 37.1869C75.8745 37.0981 75.9807 37.0537 76.1044 37.0537C76.2249 37.0537 76.3295 37.0981 76.4182 37.1869C76.5038 37.2725 76.5466 37.3771 76.5466 37.5007V37.6767C77.0032 37.2614 77.5294 37.0537 78.1255 37.0537ZM83.7892 37.068C83.9128 37.068 84.0175 37.1124 84.1031 37.2011C84.1887 37.2867 84.2315 37.3913 84.2315 37.515C84.2315 37.6386 84.1887 37.7432 84.1031 37.8288C84.0175 37.9176 83.9128 37.962 83.7892 37.962H83.0949V41.9899C83.0949 42.1135 83.0521 42.2181 82.9665 42.3037C82.8809 42.3893 82.7763 42.4321 82.6526 42.4321C82.529 42.4321 82.4244 42.3893 82.3388 42.3037C82.25 42.2181 82.2056 42.1135 82.2056 41.9899V37.962H81.5161C81.3925 37.962 81.2862 37.9176 81.1975 37.8288C81.1119 37.7432 81.0691 37.6386 81.0691 37.515C81.0691 37.3913 81.1119 37.2867 81.1975 37.2011C81.2862 37.1124 81.3925 37.068 81.5161 37.068H82.2056V35.6984C82.2056 35.5748 82.25 35.4701 82.3388 35.3845C82.4244 35.2958 82.529 35.2514 82.6526 35.2514C82.7763 35.2514 82.8809 35.2958 82.9665 35.3845C83.0521 35.4701 83.0949 35.5748 83.0949 35.6984V37.068H83.7892ZM88.7349 38.3947C88.8585 38.3947 88.9631 38.4375 89.0487 38.5231C89.1343 38.6119 89.1771 38.7181 89.1771 38.8418C89.1771 38.9622 89.1343 39.0668 89.0487 39.1556C88.9631 39.2412 88.8585 39.284 88.7349 39.284H85.2063C85.0827 39.284 84.9765 39.2412 84.8877 39.1556C84.8021 39.0668 84.7593 38.9622 84.7593 38.8418C84.7593 38.7181 84.8021 38.6119 84.8877 38.5231C84.9765 38.4375 85.0827 38.3947 85.2063 38.3947H88.7349ZM94.2988 39.3125C94.1973 38.9194 93.9865 38.5961 93.6663 38.3424C93.3366 38.0856 92.9641 37.9572 92.5488 37.9572C92.1303 37.9572 91.7562 38.0856 91.4265 38.3424C91.1063 38.5961 90.8954 38.9194 90.794 39.3125H94.2988ZM92.5488 42.4321C91.8037 42.4321 91.1665 42.1706 90.6371 41.6475C90.3898 41.4002 90.198 41.118 90.0617 40.801C89.919 40.4681 89.8477 40.121 89.8477 39.7596C89.8477 39.0177 90.1108 38.3836 90.6371 37.8574C90.8875 37.6101 91.1744 37.4183 91.4978 37.282C91.8307 37.1393 92.181 37.068 92.5488 37.068C93.2906 37.068 93.9263 37.3311 94.4557 37.8574C94.703 38.1047 94.8948 38.39 95.0311 38.7134C95.1738 39.0462 95.2451 39.395 95.2451 39.7596C95.2451 39.8832 95.2023 39.9878 95.1167 40.0734C95.0279 40.1622 94.9217 40.2066 94.7981 40.2066H90.794C90.8954 40.5934 91.1079 40.912 91.4312 41.1624C91.7578 41.416 92.1303 41.5429 92.5488 41.5429C93.2082 41.5429 93.717 41.3415 94.0753 40.9389C94.1545 40.847 94.256 40.7978 94.3796 40.7915C94.5033 40.7852 94.611 40.8216 94.703 40.9009C94.7949 40.9833 94.8441 41.0863 94.8504 41.21C94.8567 41.3304 94.8187 41.4367 94.7363 41.5286C94.2037 42.1309 93.4745 42.4321 92.5488 42.4321ZM98.4313 37.0537C99.1097 37.0537 99.6899 37.3168 100.172 37.8431C100.654 38.3662 100.895 38.9987 100.895 39.7405V41.9899C100.895 42.1103 100.85 42.215 100.761 42.3037C100.676 42.3893 100.571 42.4321 100.448 42.4321C100.324 42.4321 100.219 42.3893 100.134 42.3037C100.048 42.215 100.005 42.1103 100.005 41.9899V39.7405C100.005 39.246 99.8516 38.8227 99.544 38.4708C99.2334 38.1221 98.8624 37.9477 98.4313 37.9477C97.9938 37.9477 97.6213 38.1221 97.3137 38.4708C97.0062 38.8227 96.8525 39.246 96.8525 39.7405V41.9756C96.8525 42.0992 96.8097 42.2039 96.7241 42.2895C96.6353 42.3751 96.5307 42.4179 96.4102 42.4179C96.2866 42.4179 96.1804 42.3751 96.0916 42.2895C96.006 42.2039 95.9632 42.0992 95.9632 41.9756V37.5007C95.9632 37.3771 96.006 37.2725 96.0916 37.1869C96.1804 37.0981 96.2866 37.0537 96.4102 37.0537C96.5307 37.0537 96.6353 37.0981 96.7241 37.1869C96.8097 37.2725 96.8525 37.3771 96.8525 37.5007V37.6767C97.309 37.2614 97.8353 37.0537 98.4313 37.0537ZM106.844 41.9899C106.844 42.1135 106.799 42.2181 106.711 42.3037C106.625 42.3893 106.52 42.4321 106.397 42.4321C106.273 42.4321 106.168 42.3893 106.083 42.3037C105.997 42.2181 105.954 42.1135 105.954 41.9899V41.7569C105.454 42.207 104.87 42.4321 104.204 42.4321C103.475 42.4321 102.854 42.1706 102.34 41.6475C101.823 41.1244 101.565 40.4935 101.565 39.7548C101.565 39.013 101.823 38.3805 102.34 37.8574C102.854 37.3311 103.475 37.068 104.204 37.068C104.87 37.068 105.454 37.2946 105.954 37.748V35.6984C105.954 35.5748 105.997 35.4701 106.083 35.3845C106.168 35.2958 106.273 35.2514 106.397 35.2514C106.52 35.2514 106.625 35.2958 106.711 35.3845C106.799 35.4701 106.844 35.5748 106.844 35.6984V41.9899ZM104.204 41.5429C104.686 41.5429 105.098 41.3685 105.441 41.0198C105.783 40.6679 105.954 40.2462 105.954 39.7548V39.75C105.954 39.2555 105.783 38.8338 105.441 38.4851C105.098 38.1364 104.686 37.962 104.204 37.962C103.723 37.962 103.31 38.1364 102.968 38.4851C102.626 38.837 102.454 39.2602 102.454 39.7548C102.454 40.2462 102.626 40.6679 102.968 41.0198C103.31 41.3685 103.723 41.5429 104.204 41.5429Z" fill="#F5F7FA"/>
<rect x="96.0161" y="2.81616" width="69.76" height="28.544" rx="14.272" fill="#263238"/>
<rect x="95.2482" width="67.2" height="28.544" rx="14.272" fill="#466884"/>
<path d="M109.541 14.0311C109.807 14.0311 110.037 13.936 110.23 13.7457C110.421 13.5523 110.516 13.3225 110.516 13.0562C110.516 12.7867 110.421 12.5569 110.23 12.3667C110.037 12.1764 109.807 12.0813 109.541 12.0813H108.1V14.0311H109.541ZM108.1 14.9203V17.4788H109.607C109.962 17.4788 110.265 17.3535 110.516 17.1031C110.766 16.8526 110.891 16.5515 110.891 16.1996C110.891 15.8476 110.766 15.5465 110.516 15.296C110.265 15.0456 109.962 14.9203 109.607 14.9203H108.1ZM110.825 14.402C111.462 14.8363 111.781 15.4355 111.781 16.1996C111.781 16.7987 111.568 17.3107 111.143 17.7356C110.719 18.1572 110.207 18.368 109.607 18.368H107.658C107.534 18.368 107.428 18.3252 107.339 18.2396C107.253 18.154 107.211 18.0494 107.211 17.9258V11.6343C107.211 11.5107 107.253 11.406 107.339 11.3204C107.428 11.2317 107.534 11.1873 107.658 11.1873H109.541C110.054 11.1873 110.494 11.3696 110.858 11.7342C111.223 12.0988 111.405 12.5394 111.405 13.0562C111.405 13.5856 111.212 14.0342 110.825 14.402ZM117.254 13.0039C117.378 13.0039 117.482 13.0483 117.568 13.137C117.654 13.2226 117.696 13.3273 117.696 13.4509V17.9258C117.696 18.0494 117.654 18.154 117.568 18.2396C117.482 18.3252 117.378 18.368 117.254 18.368C117.131 18.368 117.026 18.3252 116.94 18.2396C116.852 18.154 116.807 18.0494 116.807 17.9258V17.6928C116.309 18.143 115.728 18.368 115.062 18.368C114.333 18.368 113.711 18.1065 113.198 17.5834C112.681 17.0603 112.423 16.4294 112.423 15.6907C112.423 14.9489 112.681 14.3164 113.198 13.7933C113.711 13.267 114.333 13.0039 115.062 13.0039C115.728 13.0039 116.309 13.229 116.807 13.6792V13.4509C116.807 13.3273 116.852 13.2226 116.94 13.137C117.026 13.0483 117.131 13.0039 117.254 13.0039ZM115.062 17.4788C115.544 17.4788 115.956 17.3044 116.298 16.9557C116.638 16.6038 116.807 16.1821 116.807 15.6907C116.807 15.1961 116.638 14.7729 116.298 14.421C115.956 14.0723 115.544 13.8979 115.062 13.8979C114.58 13.8979 114.168 14.0723 113.826 14.421C113.483 14.7729 113.312 15.1961 113.312 15.6907C113.312 16.1821 113.483 16.6038 113.826 16.9557C114.168 17.3044 114.58 17.4788 115.062 17.4788ZM121.101 13.8979C120.619 13.8979 120.207 14.0723 119.865 14.421C119.523 14.7729 119.351 15.1961 119.351 15.6907C119.351 16.1821 119.523 16.6038 119.865 16.9557C120.207 17.3044 120.619 17.4788 121.101 17.4788C121.691 17.4788 122.162 17.2331 122.514 16.7417C122.583 16.6434 122.68 16.5847 122.804 16.5657C122.832 16.5594 122.859 16.5562 122.885 16.5562C122.973 16.5562 123.056 16.5847 123.132 16.6418C123.233 16.7116 123.294 16.8083 123.313 16.9319C123.319 16.9604 123.322 16.9874 123.322 17.0127C123.322 17.1015 123.294 17.1839 123.237 17.26C122.707 17.9987 121.995 18.368 121.101 18.368C120.372 18.368 119.751 18.1065 119.237 17.5834C118.72 17.0603 118.462 16.4294 118.462 15.6907C118.462 14.9489 118.72 14.3164 119.237 13.7933C119.751 13.267 120.372 13.0039 121.101 13.0039C121.995 13.0039 122.707 13.3732 123.237 14.1119C123.294 14.1912 123.322 14.2752 123.322 14.3639C123.322 14.3893 123.319 14.4163 123.313 14.4448C123.294 14.5653 123.233 14.662 123.132 14.7349C123.056 14.7919 122.973 14.8205 122.885 14.8205C122.859 14.8205 122.832 14.8173 122.804 14.811C122.68 14.7919 122.583 14.7317 122.514 14.6302C122.162 14.142 121.691 13.8979 121.101 13.8979ZM125.6 15.6004L127.783 17.5929C127.872 17.6785 127.919 17.7815 127.925 17.902C127.932 18.0256 127.892 18.1334 127.807 18.2254C127.721 18.3205 127.612 18.368 127.478 18.368C127.364 18.368 127.264 18.3284 127.179 18.2492L124.958 16.2233V17.921C124.958 18.0447 124.915 18.1509 124.83 18.2396C124.741 18.3252 124.636 18.368 124.516 18.368C124.392 18.368 124.286 18.3252 124.197 18.2396C124.112 18.1509 124.069 18.0447 124.069 17.921V11.6343C124.069 11.5107 124.112 11.4045 124.197 11.3157C124.286 11.2301 124.392 11.1873 124.516 11.1873C124.636 11.1873 124.741 11.2301 124.83 11.3157C124.915 11.4045 124.958 11.5107 124.958 11.6343V14.9774L127.05 13.118C127.142 13.0356 127.25 12.9975 127.374 13.0039C127.494 13.0102 127.596 13.0594 127.678 13.1513C127.761 13.2432 127.799 13.351 127.792 13.4747C127.786 13.5983 127.737 13.6998 127.645 13.779L125.6 15.6004ZM132.424 14.3307C132.548 14.3307 132.652 14.3735 132.738 14.4591C132.824 14.5478 132.866 14.654 132.866 14.7777C132.866 14.8981 132.824 15.0028 132.738 15.0915C132.652 15.1771 132.548 15.2199 132.424 15.2199H128.896C128.772 15.2199 128.666 15.1771 128.577 15.0915C128.491 15.0028 128.449 14.8981 128.449 14.7777C128.449 14.654 128.491 14.5478 128.577 14.4591C128.666 14.3735 128.772 14.3307 128.896 14.3307H132.424ZM137.988 15.2485C137.887 14.8553 137.676 14.532 137.356 14.2783C137.026 14.0216 136.653 13.8932 136.238 13.8932C135.82 13.8932 135.445 14.0216 135.116 14.2783C134.796 14.532 134.585 14.8553 134.483 15.2485H137.988ZM136.238 18.368C135.493 18.368 134.856 18.1065 134.326 17.5834C134.079 17.3361 133.887 17.0539 133.751 16.7369C133.608 16.404 133.537 16.0569 133.537 15.6955C133.537 14.9536 133.8 14.3196 134.326 13.7933C134.577 13.546 134.864 13.3542 135.187 13.2179C135.52 13.0752 135.87 13.0039 136.238 13.0039C136.98 13.0039 137.616 13.267 138.145 13.7933C138.392 14.0406 138.584 14.3259 138.72 14.6493C138.863 14.9822 138.934 15.3309 138.934 15.6955C138.934 15.8191 138.892 15.9237 138.806 16.0093C138.717 16.0981 138.611 16.1425 138.487 16.1425H134.483C134.585 16.5293 134.797 16.8479 135.12 17.0983C135.447 17.352 135.82 17.4788 136.238 17.4788C136.897 17.4788 137.406 17.2775 137.765 16.8748C137.844 16.7829 137.945 16.7337 138.069 16.7274C138.192 16.7211 138.3 16.7575 138.392 16.8368C138.484 16.9192 138.533 17.0222 138.54 17.1459C138.546 17.2664 138.508 17.3726 138.426 17.4645C137.893 18.0669 137.164 18.368 136.238 18.368ZM142.121 12.9896C142.799 12.9896 143.379 13.2528 143.861 13.779C144.343 14.3021 144.584 14.9346 144.584 15.6765V17.9258C144.584 18.0463 144.539 18.1509 144.451 18.2396C144.365 18.3252 144.26 18.368 144.137 18.368C144.013 18.368 143.909 18.3252 143.823 18.2396C143.737 18.1509 143.695 18.0463 143.695 17.9258V15.6765C143.695 15.1819 143.541 14.7586 143.233 14.4067C142.923 14.058 142.552 13.8836 142.121 13.8836C141.683 13.8836 141.31 14.058 141.003 14.4067C140.695 14.7586 140.542 15.1819 140.542 15.6765V17.9115C140.542 18.0352 140.499 18.1398 140.413 18.2254C140.325 18.311 140.22 18.3538 140.099 18.3538C139.976 18.3538 139.87 18.311 139.781 18.2254C139.695 18.1398 139.652 18.0352 139.652 17.9115V13.4366C139.652 13.313 139.695 13.2084 139.781 13.1228C139.87 13.034 139.976 12.9896 140.099 12.9896C140.22 12.9896 140.325 13.034 140.413 13.1228C140.499 13.2084 140.542 13.313 140.542 13.4366V13.6126C140.998 13.1973 141.524 12.9896 142.121 12.9896ZM150.533 17.9258C150.533 18.0494 150.489 18.154 150.4 18.2396C150.314 18.3252 150.21 18.368 150.086 18.368C149.962 18.368 149.858 18.3252 149.772 18.2396C149.686 18.154 149.644 18.0494 149.644 17.9258V17.6928C149.143 18.143 148.559 18.368 147.894 18.368C147.164 18.368 146.543 18.1065 146.029 17.5834C145.513 17.0603 145.254 16.4294 145.254 15.6907C145.254 14.9489 145.513 14.3164 146.029 13.7933C146.543 13.267 147.164 13.0039 147.894 13.0039C148.559 13.0039 149.143 13.2306 149.644 13.6839V11.6343C149.644 11.5107 149.686 11.406 149.772 11.3204C149.858 11.2317 149.962 11.1873 150.086 11.1873C150.21 11.1873 150.314 11.2317 150.4 11.3204C150.489 11.406 150.533 11.5107 150.533 11.6343V17.9258ZM147.894 17.4788C148.376 17.4788 148.788 17.3044 149.13 16.9557C149.472 16.6038 149.644 16.1821 149.644 15.6907V15.686C149.644 15.1914 149.472 14.7697 149.13 14.421C148.788 14.0723 148.376 13.8979 147.894 13.8979C147.412 13.8979 147 14.0723 146.657 14.421C146.315 14.7729 146.144 15.1961 146.144 15.6907C146.144 16.1821 146.315 16.6038 146.657 16.9557C147 17.3044 147.412 17.4788 147.894 17.4788Z" fill="#F5F7FA"/>
</g>
<defs>
<linearGradient id="paint0_linear_657_8689" x1="151.056" y1="36.7761" x2="204.944" y2="36.7761" gradientUnits="userSpaceOnUse">
<stop stop-color="#1AE81A"/>
<stop offset="1" stop-color="#466884"/>
</linearGradient>
<linearGradient id="paint1_linear_657_8689" x1="50.576" y1="41.0002" x2="117.776" y2="41.0002" gradientUnits="userSpaceOnUse">
<stop stop-color="#1AE81A"/>
<stop offset="1" stop-color="#466884"/>
</linearGradient>
</defs>
</svg>
