<svg width="31" height="24" viewBox="0 0 31 24" fill="none" xmlns="http://www.w3.org/2000/svg">
<path d="M30.3587 23.9612L0 13.0155L13.0152 16.0698L28.149 19.6208L30.3587 23.9612Z" fill="url(#paint0_linear_509_1174)"/>
<path d="M28.149 19.4343L0 12.829L9.15373 13.4452L25.8498 14.9075L28.149 19.4343Z" fill="url(#paint1_linear_509_1174)"/>
<path d="M25.7424 14.712L9.47156 13.2811L16.2872 0.553925C16.3762 0.386634 16.5091 0.246705 16.6715 0.149128C16.8339 0.0515499 17.0198 0 17.2093 0C17.3988 0 17.5847 0.0515499 17.7472 0.149128C17.9096 0.246705 18.0424 0.386634 18.1314 0.553925L25.7424 14.712Z" fill="url(#paint2_linear_509_1174)"/>
<path d="M8.44203 16.2652L4.92377 23.3375C4.91228 23.3609 4.89443 23.3806 4.87226 23.3943C4.85009 23.4081 4.82451 23.4153 4.79844 23.4151H4.72234C4.71971 23.4151 4.71712 23.4144 4.71481 23.4131C4.71249 23.4118 4.71052 23.41 4.70906 23.4078C4.70759 23.4056 4.70668 23.4031 4.70639 23.4005C4.70611 23.3978 4.70646 23.3952 4.70742 23.3927L8.22717 16.3085C8.23778 16.2866 8.25432 16.2682 8.27489 16.2553C8.29546 16.2423 8.31925 16.2354 8.34355 16.2354H8.41666C8.42058 16.2346 8.42464 16.2348 8.42842 16.2362C8.43219 16.2375 8.43555 16.2398 8.43814 16.2428C8.44073 16.2459 8.44245 16.2495 8.44314 16.2535C8.44382 16.2574 8.44344 16.2615 8.44203 16.2652Z" fill="url(#paint3_linear_509_1174)"/>
<defs>
<linearGradient id="paint0_linear_509_1174" x1="0" y1="18.4884" x2="30.3587" y2="18.4884" gradientUnits="userSpaceOnUse">
<stop stop-color="#1AE81A"/>
<stop offset="0.27" stop-color="#27C239"/>
<stop offset="0.77" stop-color="#3D816F"/>
<stop offset="1" stop-color="#466884"/>
</linearGradient>
<linearGradient id="paint1_linear_509_1174" x1="0" y1="16.1324" x2="28.149" y2="16.1324" gradientUnits="userSpaceOnUse">
<stop stop-color="#4CAF50"/>
<stop offset="0.27" stop-color="#43B947"/>
<stop offset="0.72" stop-color="#2CD42D"/>
<stop offset="1" stop-color="#1AE81A"/>
</linearGradient>
<linearGradient id="paint2_linear_509_1174" x1="9.47156" y1="7.35618" x2="25.7424" y2="7.35618" gradientUnits="userSpaceOnUse">
<stop stop-color="#1AE81A"/>
<stop offset="0.27" stop-color="#27C239"/>
<stop offset="0.77" stop-color="#3D816F"/>
<stop offset="1" stop-color="#466884"/>
</linearGradient>
<linearGradient id="paint3_linear_509_1174" x1="4.7119" y1="19.8252" x2="8.44501" y2="19.8252" gradientUnits="userSpaceOnUse">
<stop stop-color="#4CAF50"/>
<stop offset="0.27" stop-color="#43B947"/>
<stop offset="0.72" stop-color="#2CD42D"/>
<stop offset="1" stop-color="#1AE81A"/>
</linearGradient>
</defs>
</svg>
