<svg width="16" height="16" viewBox="0 0 16 16" fill="none" xmlns="http://www.w3.org/2000/svg">
<g id="16/User Interface/Binocular">
<g id="Icon">
<path fill-rule="evenodd" clip-rule="evenodd" d="M14.9179 8.22758L13.4024 3.9368C13.3948 3.91546 13.3859 3.89466 13.3755 3.87454C13.1224 3.38266 12.6679 3.00566 12.183 2.75479C11.6945 2.502 11.1272 2.35181 10.5924 2.35181C9.82692 2.35181 9.06587 2.65903 8.49442 3.14633C8.3112 3.30257 8.14337 3.48113 7.99984 3.67848C7.85631 3.48113 7.68847 3.30257 7.50525 3.14633C6.9338 2.65903 6.17275 2.35181 5.40724 2.35181C4.87247 2.35181 4.3052 2.502 3.81663 2.75479C3.33179 3.00566 2.87728 3.38266 2.62417 3.87454C2.61381 3.89466 2.60483 3.91546 2.5973 3.9368L1.08179 8.22754C0.921421 8.62648 0.833172 9.06217 0.833172 9.51847C0.833169 11.431 2.38359 12.9814 4.29613 12.9814C6.03887 12.9814 7.48094 11.6941 7.72326 10.0185H8.27641C8.51873 11.6941 9.9608 12.9814 11.7035 12.9814C13.6155 12.9814 15.1656 11.4319 15.1665 9.52009M13.212 6.40043L12.472 4.3052C12.3377 4.06311 12.0759 3.82529 11.7235 3.64294C11.3618 3.45578 10.951 3.35181 10.5924 3.35181C10.0852 3.35181 9.54993 3.56047 9.14328 3.90724C8.7375 4.25327 8.49984 4.69968 8.49984 5.15633V8.20139C9.01811 6.94207 10.2573 6.0555 11.7035 6.0555C12.2443 6.0555 12.756 6.17943 13.212 6.40043ZM9.29062 9.0221C9.25781 9.18243 9.24058 9.34844 9.24058 9.51847C9.24058 10.8787 10.3433 11.9814 11.7035 11.9814C13.0638 11.9814 14.1665 10.8787 14.1665 9.51846C14.1665 8.50219 13.551 7.62968 12.6724 7.25339C12.6542 7.24557 12.6358 7.23796 12.6173 7.23057C12.3347 7.11761 12.0263 7.05551 11.7035 7.05551C10.8534 7.05551 10.1039 7.48621 9.66128 8.14131C9.4842 8.4034 9.35624 8.7014 9.29062 9.0221ZM7.49984 8.2014C7.37027 7.88657 7.19564 7.59504 6.98399 7.33483C6.34903 6.55421 5.38082 6.05551 4.29613 6.05551C4.28106 6.05551 4.26601 6.05561 4.25098 6.0558C3.929 6.05991 3.61767 6.10796 3.32268 6.19421C3.13745 6.24836 2.95864 6.31757 2.78768 6.40043L3.52772 4.3052C3.66193 4.06311 3.92377 3.82529 4.27618 3.64294C4.63791 3.45578 5.04867 3.35181 5.40724 3.35181C5.91449 3.35181 6.44974 3.56047 6.85639 3.90724C7.26218 4.25327 7.49984 4.69968 7.49984 5.15633V8.2014ZM6.7591 9.51846C6.7591 9.51846 6.7591 9.51847 6.7591 9.51846C6.7591 10.8787 5.65639 11.9814 4.29613 11.9814C2.93637 11.9814 1.83396 10.8795 1.83317 9.51994C1.83317 9.51945 1.83317 9.51896 1.83317 9.51847C1.83317 9.498 1.83342 9.47759 1.83391 9.45725C1.83451 9.43269 1.83547 9.40822 1.83677 9.38385C1.88905 8.41331 2.50321 7.59211 3.35971 7.23976C3.64848 7.12098 3.96472 7.05551 4.29613 7.05551C5.14629 7.05551 5.89585 7.48626 6.33846 8.14141C6.60403 8.53449 6.75909 9.00837 6.7591 9.51846Z" fill="#2C3E50"/>
<path d="M14.9179 8.22758C15.0783 8.6265 15.1665 9.06218 15.1665 9.51846C15.1665 9.51846 15.1665 9.51847 15.1665 9.51846" fill="#2C3E50"/>
</g>
</g>
</svg>
