<svg width="16" height="16" viewBox="0 0 16 16" fill="none" xmlns="http://www.w3.org/2000/svg">
<g id="16/User Interface/Diamond">
<path id="Icon" fill-rule="evenodd" clip-rule="evenodd" d="M11.6432 2.16663C12.0333 2.16663 12.3976 2.36158 12.614 2.68614L15.0068 6.27536C15.1533 6.4951 15.1708 6.77648 15.0527 7.01268C13.7433 9.63149 11.9236 11.9621 9.70053 13.8676L8.53339 14.868C8.22647 15.1311 7.77358 15.1311 7.46666 14.868L6.29951 13.8676C4.07647 11.9621 2.25677 9.63149 0.947367 7.01268C0.829264 6.77648 0.846784 6.4951 0.993272 6.27536L3.38609 2.68614C3.60246 2.36158 3.96673 2.16663 4.35681 2.16663L11.6432 2.16663ZM11.7819 3.24084C11.751 3.19448 11.699 3.16663 11.6432 3.16663H10.0834L11.3601 6.23082C11.3895 6.3014 11.4117 6.37419 11.4267 6.44812C11.8959 6.4132 12.3647 6.37109 12.833 6.3218L13.7701 6.22315L11.7819 3.24084ZM13.8143 7.22403C12.6187 9.41734 11.0399 11.3809 9.15121 13.0208L11.2349 7.46441C11.8031 7.42534 12.3708 7.37598 12.9377 7.3163L13.8143 7.22403ZM10.1435 7.52673L8.00002 13.2426L5.85656 7.52673C7.28479 7.59171 8.71525 7.59171 10.1435 7.52673ZM4.76518 7.46441L6.84883 13.0208C4.96016 11.3809 3.38139 9.41734 2.18579 7.22403L3.06239 7.3163C3.62927 7.37598 4.19696 7.42534 4.76518 7.46441ZM2.22993 6.22315L3.16708 6.3218C3.63533 6.37109 4.10415 6.41319 4.57337 6.44812C4.58833 6.37419 4.61052 6.3014 4.63993 6.23082L5.91668 3.16663H4.35681C4.30109 3.16663 4.24905 3.19448 4.21814 3.24084L2.22993 6.22315ZM5.60556 6.51333C7.20079 6.59618 8.79925 6.59618 10.3945 6.51333L9.00003 3.16663H7.00001L5.60556 6.51333Z" fill="#2C3E50"/>
</g>
</svg>
