<svg width="17" height="16" viewBox="0 0 17 16" fill="none" xmlns="http://www.w3.org/2000/svg">
<path fill-rule="evenodd" clip-rule="evenodd" d="M8.33334 4.16667C7.13672 4.16667 6.16667 5.13672 6.16667 6.33333C6.16667 7.52995 7.13672 8.5 8.33334 8.5C9.52995 8.5 10.5 7.52995 10.5 6.33333C10.5 5.13672 9.52995 4.16667 8.33334 4.16667ZM7.16667 6.33333C7.16667 5.689 7.689 5.16667 8.33334 5.16667C8.97767 5.16667 9.5 5.689 9.5 6.33333C9.5 6.97767 8.97767 7.5 8.33334 7.5C7.689 7.5 7.16667 6.97767 7.16667 6.33333Z" fill="#4CAF50"/>
<path fill-rule="evenodd" clip-rule="evenodd" d="M8.33334 1.5C5.66396 1.5 3.5 3.66396 3.5 6.33333C3.5 7.31209 3.79092 8.22289 4.29101 8.98399L2.56699 11.9701C2.46894 12.1399 2.47921 12.3514 2.59325 12.5109C2.70729 12.6704 2.90404 12.7485 3.09645 12.7107L4.83903 12.3681L5.41365 14.0485C5.47709 14.2341 5.64314 14.3654 5.8383 14.3844C6.03347 14.4034 6.22172 14.3066 6.31976 14.1368L8.03961 11.1579C8.13678 11.1637 8.23471 11.1667 8.33334 11.1667C8.43196 11.1667 8.5299 11.1637 8.62706 11.1579L10.3469 14.1368C10.4451 14.3067 10.6336 14.4036 10.8289 14.3843C11.0243 14.3651 11.1903 14.2334 11.2534 14.0475L11.8251 12.3637L13.5692 12.7105C13.7617 12.7488 13.9588 12.6709 14.0731 12.5113C14.1874 12.3518 14.1978 12.1401 14.0997 11.9701L12.3757 8.98399C12.8757 8.22289 13.1667 7.31209 13.1667 6.33333C13.1667 3.66396 11.0027 1.5 8.33334 1.5ZM4.5 6.33333C4.5 4.21624 6.21624 2.5 8.33334 2.5C10.4504 2.5 12.1667 4.21624 12.1667 6.33333C12.1667 8.45043 10.4504 10.1667 8.33334 10.1667C6.21624 10.1667 4.5 8.45043 4.5 6.33333ZM6.98917 10.9773C6.22052 10.7552 5.53065 10.3475 4.97127 9.80575L3.98313 11.5173L5.07445 11.3027C5.31981 11.2545 5.56308 11.3949 5.64399 11.6315L6.00386 12.6839L6.98917 10.9773ZM10.6612 12.6812L9.6775 10.9773C10.4462 10.7552 11.136 10.3475 11.6954 9.80575L12.682 11.5145L11.5901 11.2974C11.344 11.2485 11.0998 11.3895 11.0191 11.627L10.6612 12.6812Z" fill="#4CAF50"/>
</svg>
