<svg width="32" height="33" viewBox="0 0 32 33" fill="none" xmlns="http://www.w3.org/2000/svg">
<path opacity="0.1" fill-rule="evenodd" clip-rule="evenodd" d="M0 16.3435C0 7.50695 7.16344 0.343506 16 0.343506C24.8366 0.343506 32 7.50695 32 16.3435C32 25.1801 24.8366 32.3435 16 32.3435C7.16344 32.3435 0 25.1801 0 16.3435Z" fill="white"/>
<path fill-rule="evenodd" clip-rule="evenodd" d="M15.5208 13.3486L15.5544 13.9022L14.9948 13.8344C12.9579 13.5746 11.1784 12.6933 9.66756 11.2132L8.92891 10.4787L8.73865 11.0211C8.33575 12.23 8.59316 13.5068 9.43253 14.3655C9.8802 14.84 9.77948 14.9078 9.00725 14.6254C8.73865 14.535 8.50363 14.4672 8.48124 14.5011C8.4029 14.5802 8.6715 15.6083 8.88414 16.0151C9.17513 16.58 9.76828 17.1337 10.4174 17.4613L10.9658 17.7212L10.3167 17.7325C9.68994 17.7325 9.66756 17.7438 9.73471 17.9811C9.95854 18.7155 10.8427 19.4951 11.8276 19.8341L12.5214 20.0713L11.9171 20.4329C11.0218 20.9526 9.96973 21.2464 8.91772 21.269C8.41409 21.2803 8 21.3255 8 21.3594C8 21.4724 9.36538 22.1051 10.16 22.3537C12.5438 23.0881 15.3753 22.7717 17.5017 21.5176C19.0126 20.625 20.5235 18.8511 21.2286 17.1337C21.6091 16.2185 21.9896 14.5463 21.9896 13.7441C21.9896 13.2243 22.0232 13.1565 22.6499 12.5351C23.0192 12.1735 23.3662 11.7781 23.4333 11.6651C23.5452 11.4504 23.534 11.4504 22.9633 11.6425C22.012 11.9815 21.8777 11.9363 22.3477 11.4278C22.6947 11.0663 23.1088 10.4109 23.1088 10.2189C23.1088 10.185 22.9409 10.2415 22.7506 10.3432C22.5492 10.4561 22.1015 10.6256 21.7658 10.7273L21.1614 10.9194L20.613 10.5465C20.3108 10.3432 19.8856 10.1172 19.6617 10.0494C19.0909 9.8912 18.218 9.9138 17.7032 10.0946C16.3042 10.603 15.4201 11.9137 15.5208 13.3486Z" fill="white"/>
</svg>
