<svg width="25" height="24" viewBox="0 0 25 24" fill="none" xmlns="http://www.w3.org/2000/svg">
<path fill-rule="evenodd" clip-rule="evenodd" d="M0.333496 12C0.333496 5.37258 5.70608 0 12.3335 0C18.9609 0 24.3335 5.37258 24.3335 12C24.3335 18.6274 18.9609 24 12.3335 24C5.70608 24 0.333496 18.6274 0.333496 12Z" fill="url(#paint0_linear_1128_20448)"/>
<path fill-rule="evenodd" clip-rule="evenodd" d="M11.9741 9.7537L11.9993 10.1689L11.5796 10.1181C10.0519 9.92318 8.71732 9.26221 7.58417 8.15211L7.03018 7.6013L6.88748 8.00805C6.58531 8.91477 6.77836 9.87234 7.4079 10.5164C7.74365 10.8723 7.6681 10.9231 7.08893 10.7113C6.88748 10.6435 6.71121 10.5926 6.69443 10.6181C6.63567 10.6774 6.83712 11.4485 6.9966 11.7536C7.21484 12.1773 7.65971 12.5925 8.14655 12.8382L8.55784 13.0331L8.071 13.0416C7.60095 13.0416 7.58417 13.0501 7.63453 13.2281C7.8024 13.7789 8.46551 14.3636 9.20416 14.6178L9.72457 14.7957L9.27131 15.0669C8.59981 15.4567 7.8108 15.677 7.02178 15.694C6.64406 15.7025 6.3335 15.7364 6.3335 15.7618C6.3335 15.8465 7.35753 16.3211 7.95349 16.5075C9.74136 17.0583 11.865 16.821 13.4598 15.8804C14.5929 15.211 15.7261 13.8806 16.2549 12.5925C16.5403 11.9061 16.8257 10.6519 16.8257 10.0503C16.8257 9.66049 16.8509 9.60964 17.3209 9.14357C17.5979 8.8724 17.8581 8.57581 17.9085 8.49107C17.9924 8.33007 17.984 8.33007 17.5559 8.47412C16.8425 8.72834 16.7417 8.69445 17.0943 8.31312C17.3545 8.04195 17.6651 7.55046 17.6651 7.4064C17.6651 7.38098 17.5392 7.42335 17.3965 7.49961C17.2454 7.58435 16.9096 7.71146 16.6578 7.78773L16.2045 7.93179L15.7933 7.65214C15.5666 7.49961 15.2477 7.33013 15.0798 7.27929C14.6517 7.16065 13.997 7.1776 13.6109 7.31318C12.5617 7.69451 11.8986 8.6775 11.9741 9.7537Z" fill="white"/>
<defs>
<linearGradient id="paint0_linear_1128_20448" x1="0.333496" y1="14.24" x2="24.3335" y2="14.24" gradientUnits="userSpaceOnUse">
<stop stop-color="#1AE81A"/>
<stop offset="1" stop-color="#466884"/>
</linearGradient>
</defs>
</svg>
