<svg width="16" height="16" viewBox="0 0 16 16" fill="none" xmlns="http://www.w3.org/2000/svg">
<path d="M3.36316 1.36337C3.1679 1.55863 3.1679 1.87521 3.36316 2.07047L3.73013 2.43744C1.53746 4.99149 1.65081 8.8434 4.07027 11.2629C5.21224 12.4048 6.67334 13.0331 8.16646 13.1475V14.1667L6.9998 14.1667C6.72365 14.1667 6.4998 14.3905 6.4998 14.6667C6.4998 14.9428 6.72365 15.1667 6.9998 15.1667L10.3331 15.1667C10.6093 15.1667 10.8331 14.9428 10.8331 14.6667C10.8331 14.3905 10.6093 14.1667 10.3331 14.1667H9.16646V13.1475C10.504 13.0449 11.8158 12.5301 12.8957 11.603L13.2627 11.97C13.4579 12.1652 13.7745 12.1652 13.9698 11.97C14.165 11.7747 14.165 11.4581 13.9698 11.2629L13.4984 10.7915C13.1681 10.4612 12.6548 10.478 12.3333 10.7662C11.292 11.6994 9.98032 12.1662 8.6685 12.1667L8.66646 12.1667L8.6643 12.1667C7.25745 12.1661 5.85073 11.6291 4.77738 10.5558C2.70211 8.48048 2.63193 5.15902 4.56692 2.99985C4.85508 2.6783 4.87196 2.16506 4.54167 1.83477L4.07027 1.36337C3.87501 1.1681 3.55843 1.1681 3.36316 1.36337Z" fill="white"/>
<path fill-rule="evenodd" clip-rule="evenodd" d="M13.1665 6.66667C13.1665 4.18139 11.1517 2.16667 8.66646 2.16667C6.18118 2.16667 4.16646 4.18139 4.16646 6.66667C4.16646 9.15195 6.18118 11.1667 8.66646 11.1667C11.1517 11.1667 13.1665 9.15195 13.1665 6.66667ZM8.66646 3.16667C10.5995 3.16667 12.1665 4.73367 12.1665 6.66667C12.1665 6.88989 12.1456 7.10823 12.1056 7.31984C11.8314 7.02081 11.4375 6.83333 10.9998 6.83333C10.1714 6.83333 9.4998 7.50491 9.4998 8.33333C9.4998 8.94823 9.86979 9.47672 10.3993 9.7083C9.88839 9.99999 9.29689 10.1667 8.66646 10.1667C6.97089 10.1667 5.55692 8.96096 5.23516 7.36014C5.68087 8.04623 6.45401 8.5 7.33313 8.5C8.71384 8.5 9.83313 7.38071 9.83313 6C9.83313 4.61929 8.71384 3.5 7.33313 3.5C7.27548 3.5 7.21829 3.50195 7.16161 3.50579C7.61747 3.28837 8.12775 3.16667 8.66646 3.16667ZM8.83313 6C8.83313 5.17157 8.16156 4.5 7.33313 4.5C6.5047 4.5 5.83313 5.17157 5.83313 6C5.83313 6.82843 6.5047 7.5 7.33313 7.5C8.16156 7.5 8.83313 6.82843 8.83313 6ZM10.9998 7.83333C11.2759 7.83333 11.4998 8.05719 11.4998 8.33333C11.4998 8.60948 11.2759 8.83333 10.9998 8.83333C10.7237 8.83333 10.4998 8.60948 10.4998 8.33333C10.4998 8.05719 10.7237 7.83333 10.9998 7.83333Z" fill="white"/>
</svg>
