<svg width="17" height="16" viewBox="0 0 17 16" fill="none" xmlns="http://www.w3.org/2000/svg">
<path d="M5.40974 4.58826C6.28542 3.70956 7.49551 3.16669 8.83333 3.16669C11.5027 3.16669 13.6667 5.33064 13.6667 8.00002C13.6667 10.6694 11.5027 12.8334 8.83333 12.8334C6.16396 12.8334 4 10.6694 4 8.00002C4 7.72388 3.77614 7.50002 3.5 7.50002C3.22386 7.50002 3 7.72388 3 8.00002C3 11.2217 5.61167 13.8334 8.83333 13.8334C12.055 13.8334 14.6667 11.2217 14.6667 8.00002C14.6667 4.77836 12.055 2.16669 8.83333 2.16669C7.21901 2.16669 5.75705 2.8231 4.70142 3.88237C4.68445 3.89939 4.66897 3.91733 4.65496 3.93603L3.81659 3.09765C3.72513 3.00619 3.58902 2.9759 3.46741 3.01993C3.34579 3.06396 3.26063 3.17437 3.24892 3.30317L3.01322 5.8959C3.00426 5.99442 3.03953 6.09183 3.10948 6.16178C3.17943 6.23173 3.27684 6.267 3.37536 6.25804L5.96808 6.02234C6.09689 6.01063 6.2073 5.92547 6.25133 5.80385C6.29536 5.68224 6.26506 5.54613 6.17361 5.45467L5.35486 4.63593C5.37401 4.62159 5.39236 4.6057 5.40974 4.58826Z" fill="url(#paint0_linear_1193_2273)"/>
<path d="M9.33333 4.66669C9.33333 4.39054 9.10948 4.16669 8.83333 4.16669C8.55719 4.16669 8.33333 4.39054 8.33333 4.66669V8.00002C8.33333 8.17242 8.42214 8.33265 8.56833 8.42402L10.5683 9.67402C10.8025 9.82037 11.111 9.74919 11.2573 9.51502C11.4037 9.28085 11.3325 8.97238 11.0983 8.82602L9.33333 7.7229V4.66669Z" fill="url(#paint1_linear_1193_2273)"/>
<defs>
<linearGradient id="paint0_linear_1193_2273" x1="3" y1="9.08891" x2="14.6667" y2="9.08891" gradientUnits="userSpaceOnUse">
<stop stop-color="#1AE81A"/>
<stop offset="1" stop-color="#466884"/>
</linearGradient>
<linearGradient id="paint1_linear_1193_2273" x1="3" y1="9.08891" x2="14.6667" y2="9.08891" gradientUnits="userSpaceOnUse">
<stop stop-color="#1AE81A"/>
<stop offset="1" stop-color="#466884"/>
</linearGradient>
</defs>
</svg>
