<svg width="21" height="16" viewBox="0 0 21 16" fill="none" xmlns="http://www.w3.org/2000/svg">
<path d="M20.2392 15.9741L0 8.67702L8.67677 10.7132L18.766 13.0806L20.2392 15.9741Z" fill="url(#paint0_linear_509_1179)"/>
<path d="M18.766 12.9562L0 8.55267L6.10248 8.96348L17.2332 9.93829L18.766 12.9562Z" fill="url(#paint1_linear_509_1179)"/>
<path d="M17.1615 9.80799L6.31433 8.85407L10.8581 0.369283C10.9174 0.257756 11.006 0.16447 11.1143 0.0994184C11.2226 0.0343666 11.3465 0 11.4728 0C11.5992 0 11.7231 0.0343666 11.8314 0.0994184C11.9397 0.16447 12.0282 0.257756 12.0876 0.369283L17.1615 9.80799Z" fill="url(#paint2_linear_509_1179)"/>
<path d="M5.628 10.8435L3.28249 15.5584C3.27483 15.574 3.26293 15.5871 3.24815 15.5962C3.23337 15.6054 3.21632 15.6102 3.19894 15.6101H3.14821C3.14645 15.61 3.14473 15.6096 3.14318 15.6087C3.14164 15.6079 3.14033 15.6067 3.13935 15.6052C3.13837 15.6037 3.13777 15.6021 3.13758 15.6003C3.13739 15.5986 3.13762 15.5968 3.13826 15.5952L5.48476 10.8723C5.49183 10.8578 5.50286 10.8455 5.51657 10.8368C5.53029 10.8282 5.54615 10.8236 5.56235 10.8236H5.61109C5.6137 10.8231 5.6164 10.8232 5.61892 10.8241C5.62144 10.825 5.62368 10.8265 5.62541 10.8285C5.62713 10.8306 5.62828 10.833 5.62874 10.8357C5.62919 10.8383 5.62894 10.841 5.628 10.8435Z" fill="url(#paint3_linear_509_1179)"/>
<defs>
<linearGradient id="paint0_linear_509_1179" x1="0" y1="12.3256" x2="20.2392" y2="12.3256" gradientUnits="userSpaceOnUse">
<stop stop-color="#1AE81A"/>
<stop offset="0.27" stop-color="#27C239"/>
<stop offset="0.77" stop-color="#3D816F"/>
<stop offset="1" stop-color="#466884"/>
</linearGradient>
<linearGradient id="paint1_linear_509_1179" x1="0" y1="10.7549" x2="18.766" y2="10.7549" gradientUnits="userSpaceOnUse">
<stop stop-color="#4CAF50"/>
<stop offset="0.27" stop-color="#43B947"/>
<stop offset="0.72" stop-color="#2CD42D"/>
<stop offset="1" stop-color="#1AE81A"/>
</linearGradient>
<linearGradient id="paint2_linear_509_1179" x1="6.31433" y1="4.90412" x2="17.1615" y2="4.90412" gradientUnits="userSpaceOnUse">
<stop stop-color="#1AE81A"/>
<stop offset="0.27" stop-color="#27C239"/>
<stop offset="0.77" stop-color="#3D816F"/>
<stop offset="1" stop-color="#466884"/>
</linearGradient>
<linearGradient id="paint3_linear_509_1179" x1="3.14125" y1="13.2168" x2="5.62999" y2="13.2168" gradientUnits="userSpaceOnUse">
<stop stop-color="#4CAF50"/>
<stop offset="0.27" stop-color="#43B947"/>
<stop offset="0.72" stop-color="#2CD42D"/>
<stop offset="1" stop-color="#1AE81A"/>
</linearGradient>
</defs>
</svg>
