<svg width="14" height="13" viewBox="0 0 14 13" fill="none" xmlns="http://www.w3.org/2000/svg">
<g clip-path="url(#clip0_1331_792)">
<path d="M12.6481 6.61024C12.6481 6.14822 12.6099 5.81106 12.5271 5.46143H7.14355V7.54677H10.3036C10.2399 8.06501 9.89584 8.84547 9.1313 9.3699L9.12059 9.43972L10.8228 10.732L10.9407 10.7435C12.0237 9.76327 12.6481 8.32099 12.6481 6.61024Z" fill="#4285F4"/>
<path d="M7.14282 12.1047C8.69096 12.1047 9.99063 11.6052 10.9399 10.7436L9.13057 9.36998C8.64638 9.7009 7.99652 9.93191 7.14282 9.93191C5.62653 9.93191 4.33959 8.95168 3.88084 7.5968L3.81359 7.6024L2.04365 8.94479L2.02051 9.00785C2.96341 10.8435 4.9002 12.1047 7.14282 12.1047Z" fill="#34A853"/>
<path d="M3.88112 7.59682C3.76007 7.24718 3.69002 6.87254 3.69002 6.48545C3.69002 6.09832 3.76007 5.72372 3.87475 5.37408L3.87154 5.29962L2.07942 3.93567L2.02078 3.963C1.63217 4.72473 1.40918 5.58013 1.40918 6.48545C1.40918 7.39077 1.63217 8.24612 2.02078 9.00785L3.88112 7.59682Z" fill="#FBBC05"/>
<path d="M7.14285 3.03898C8.21954 3.03898 8.94583 3.49476 9.35997 3.87565L10.9782 2.32722C9.98435 1.4219 8.691 0.866211 7.14285 0.866211C4.90022 0.866211 2.96341 2.12741 2.02051 3.96302L3.87448 5.3741C4.33961 4.01924 5.62655 3.03898 7.14285 3.03898Z" fill="#EB4335"/>
</g>
<defs>
<clipPath id="clip0_1331_792">
<rect width="12.844" height="12.844" fill="white" transform="translate(0.606445 0.0634766)"/>
</clipPath>
</defs>
</svg>
