<svg width="17" height="16" viewBox="0 0 17 16" fill="none" xmlns="http://www.w3.org/2000/svg">
<g id="16/User Interface//Bank">
<g id="Icon">
<path fill-rule="evenodd" clip-rule="evenodd" d="M8.27666 1.59678C8.53074 1.51868 8.80242 1.51868 9.0565 1.59678L11.047 2.20856C12.0854 2.52772 13.0716 2.99696 13.9743 3.6014C14.6764 4.07152 14.3436 5.16668 13.4986 5.16668H3.83452C2.98956 5.16668 2.65676 4.07152 3.35886 3.6014C4.26155 2.99696 5.24774 2.52772 6.28617 2.20856L8.27666 1.59678ZM8.76272 2.55265C8.70007 2.53339 8.63309 2.53339 8.57045 2.55265L6.57996 3.16443C5.79275 3.40637 5.03853 3.74307 4.33371 4.16668H12.9995C12.2946 3.74307 11.5404 3.40637 10.7532 3.16443L8.76272 2.55265Z" fill="#2C3E50"/>
<path d="M3.49992 14C3.49992 13.7239 3.72378 13.5 3.99992 13.5H13.3333C13.6094 13.5 13.8333 13.7239 13.8333 14C13.8333 14.2762 13.6094 14.5 13.3333 14.5H3.99992C3.72378 14.5 3.49992 14.2762 3.49992 14Z" fill="#2C3E50"/>
<path d="M4.83325 11.3334C4.83325 11.6095 5.05711 11.8334 5.33325 11.8334C5.60939 11.8334 5.83325 11.6095 5.83325 11.3334L5.83325 7.33335C5.83325 7.05721 5.60939 6.83335 5.33325 6.83335C5.05711 6.83335 4.83325 7.05721 4.83325 7.33335L4.83325 11.3334Z" fill="#2C3E50"/>
<path d="M8.66659 11.8334C8.39044 11.8334 8.16659 11.6095 8.16659 11.3334L8.16658 7.33335C8.16658 7.05721 8.39044 6.83335 8.66659 6.83335C8.94273 6.83335 9.16659 7.05721 9.16659 7.33335V11.3334C9.16659 11.6095 8.94273 11.8334 8.66659 11.8334Z" fill="#2C3E50"/>
<path d="M11.4999 11.3334C11.4999 11.6095 11.7238 11.8334 11.9999 11.8334C12.2761 11.8334 12.4999 11.6095 12.4999 11.3334V7.33335C12.4999 7.05721 12.2761 6.83335 11.9999 6.83335C11.7238 6.83335 11.4999 7.05721 11.4999 7.33335V11.3334Z" fill="#2C3E50"/>
</g>
</g>
</svg>
