<svg width="32" height="33" viewBox="0 0 32 33" fill="none" xmlns="http://www.w3.org/2000/svg">
<path opacity="0.1" fill-rule="evenodd" clip-rule="evenodd" d="M0 16.3435C0 7.50695 7.16344 0.343506 16 0.343506C24.8366 0.343506 32 7.50695 32 16.3435C32 25.1801 24.8366 32.3435 16 32.3435C7.16344 32.3435 0 25.1801 0 16.3435Z" fill="white"/>
<path fill-rule="evenodd" clip-rule="evenodd" d="M22.6679 10.843C23.4022 11.0445 23.9805 11.6383 24.1768 12.3923C24.5335 13.7588 24.5335 16.6101 24.5335 16.6101C24.5335 16.6101 24.5335 19.4613 24.1768 20.828C23.9805 21.582 23.4022 22.1757 22.6679 22.3774C21.3371 22.7435 16.0001 22.7435 16.0001 22.7435C16.0001 22.7435 10.6632 22.7435 9.3323 22.3774C8.59795 22.1757 8.01962 21.582 7.82335 20.828C7.4668 19.4613 7.4668 16.6101 7.4668 16.6101C7.4668 16.6101 7.4668 13.7588 7.82335 12.3923C8.01962 11.6383 8.59795 11.0445 9.3323 10.843C10.6632 10.4768 16.0001 10.4768 16.0001 10.4768C16.0001 10.4768 21.3371 10.4768 22.6679 10.843ZM14.4001 14.2101V19.5434L18.6668 16.8769L14.4001 14.2101Z" fill="white"/>
</svg>
