<svg width="17" height="17" viewBox="0 0 17 17" fill="none" xmlns="http://www.w3.org/2000/svg">
<g id="16/User Interface/University">
<path id="Icon" fill-rule="evenodd" clip-rule="evenodd" d="M8.4077 2.70131C8.57003 2.65511 8.74124 2.65507 8.90355 2.70113C9.24858 2.79905 9.59678 2.88986 9.94614 2.98098C11.5867 3.40885 13.2528 3.8434 14.7352 5.05074L15.4178 5.60674C15.6947 5.83226 15.8332 6.16608 15.8333 6.49996V11.1666C15.8333 11.4428 15.6095 11.6666 15.3333 11.6666C15.0572 11.6666 14.8333 11.4428 14.8333 11.1666V7.87108L14.7247 7.95971C14.2111 8.37886 13.6752 8.70433 13.1259 8.96853C13.1521 9.02927 13.1667 9.09625 13.1667 9.16663V12.0292C13.1667 12.7848 12.7032 13.4629 11.9993 13.7374L9.3326 14.777C8.90434 14.944 8.42899 14.944 8.00074 14.777L5.33407 13.7374C4.63015 13.4629 4.16667 12.7848 4.16667 12.0292V9.16663C4.16667 9.09447 4.18195 9.02589 4.20945 8.96394C3.65589 8.69818 3.11582 8.3708 2.59816 7.94917L1.91553 7.39318C1.36176 6.94214 1.36147 6.05791 1.91476 5.60641L2.60862 5.04021C4.08024 3.83932 5.73462 3.40736 7.36302 2.98219C7.71314 2.89078 8.06206 2.79967 8.4077 2.70131ZM14.8333 6.50036C14.8333 6.4403 14.809 6.40064 14.7863 6.38209L14.1037 5.8261C12.6667 4.83329 11.3862 4.39542 9.75993 3.96807C9.40233 3.8741 9.0346 3.77747 8.65598 3.67035C8.27566 3.77824 7.9066 3.87533 7.5478 3.96973C5.93453 4.39415 4.52882 4.76397 3.24085 5.81498L2.547 6.38118C2.52421 6.39978 2.49998 6.4395 2.5 6.49956C2.50002 6.55962 2.52429 6.59928 2.54706 6.61782L3.22968 7.17382C4.52856 8.23174 5.9471 8.6045 7.5734 9.03185C7.93102 9.12583 8.29871 9.22245 8.67735 9.32957C9.05764 9.22169 9.42668 9.1246 9.78545 9.03021C11.3987 8.60579 12.8045 8.23595 14.0925 7.18494L14.7863 6.61874C14.8091 6.60015 14.8333 6.56032 14.8333 6.50036ZM9.97031 10.0177C10.7035 9.82629 11.442 9.63347 12.1667 9.36972V12.0292C12.1667 12.3727 11.956 12.6809 11.636 12.8057L8.96936 13.8453C8.7747 13.9212 8.55863 13.9212 8.36397 13.8453L5.6973 12.8057C5.37734 12.6809 5.16667 12.3727 5.16667 12.0292V9.36406C5.89918 9.63085 6.6458 9.82558 7.38718 10.0189C7.73655 10.1101 8.08475 10.2009 8.42978 10.2988C8.59209 10.3448 8.7633 10.3448 8.92563 10.2986C9.27125 10.2002 9.62022 10.1091 9.97031 10.0177Z" fill="#4CAF50"/>
</g>
</svg>
