<svg width="16" height="16" viewBox="0 0 16 16" fill="none" xmlns="http://www.w3.org/2000/svg">
<g id="16/User Interface/History">
<g id="Icon">
<path d="M11.4238 4.5882C10.5481 3.7095 9.33799 3.16663 8.00016 3.16663C5.33079 3.16663 3.16683 5.33058 3.16683 7.99996C3.16683 10.6693 5.33079 12.8333 8.00016 12.8333C10.6695 12.8333 12.8335 10.6693 12.8335 7.99996C12.8335 7.72382 13.0574 7.49996 13.3335 7.49996C13.6096 7.49996 13.8335 7.72382 13.8335 7.99996C13.8335 11.2216 11.2218 13.8333 8.00016 13.8333C4.7785 13.8333 2.16683 11.2216 2.16683 7.99996C2.16683 4.7783 4.7785 2.16663 8.00016 2.16663C9.61449 2.16663 11.0764 2.82304 12.1321 3.88231C12.149 3.89933 12.1645 3.91727 12.1785 3.93597L13.0169 3.09759C13.1084 3.00613 13.2445 2.97584 13.3661 3.01987C13.4877 3.0639 13.5729 3.17431 13.5846 3.30311L13.8203 5.89584C13.8292 5.99436 13.794 6.09177 13.724 6.16172C13.6541 6.23167 13.5567 6.26694 13.4581 6.25798L10.8654 6.02228C10.7366 6.01057 10.6262 5.9254 10.5822 5.80379C10.5381 5.68218 10.5684 5.54607 10.6599 5.45461L11.4786 4.63587C11.4595 4.62153 11.4411 4.60564 11.4238 4.5882Z" fill="#2C3E50"/>
<path d="M7.50016 4.66663C7.50016 4.39048 7.72402 4.16663 8.00016 4.16663C8.2763 4.16663 8.50016 4.39048 8.50016 4.66663V7.99996C8.50016 8.17235 8.41135 8.33259 8.26516 8.42396L6.26516 9.67396C6.03099 9.82031 5.72252 9.74913 5.57616 9.51496C5.42981 9.28079 5.50099 8.97232 5.73516 8.82596L7.50016 7.72284V4.66663Z" fill="#2C3E50"/>
</g>
</g>
</svg>
