<svg width="84" height="26" viewBox="0 0 84 26" fill="none" xmlns="http://www.w3.org/2000/svg">
<path d="M45.0577 22.2407C45.0577 23.4331 44.7143 24.3312 44.0276 24.9348C43.3409 25.5385 42.3827 25.8398 41.153 25.8387H34.8098V23.6716H41.5587C41.7394 23.6751 41.9186 23.6377 42.0829 23.5622C42.2472 23.4867 42.3922 23.3751 42.5073 23.2356C42.7595 22.9414 42.8938 22.5642 42.8842 22.1768C42.8896 21.8012 42.7552 21.4369 42.5073 21.1547C42.3922 21.0153 42.2472 20.9036 42.0829 20.8281C41.9186 20.7526 41.7394 20.7152 41.5587 20.7188H38.0852C37.4645 20.7375 36.8465 20.6288 36.2694 20.3994C35.8119 20.2118 35.4021 19.9242 35.0701 19.5577C34.7716 19.2229 34.5459 18.8297 34.4073 18.4031C34.2726 17.9961 34.203 17.5703 34.2013 17.1415C34.1975 16.6645 34.2703 16.19 34.4169 15.7361C34.5595 15.3039 34.7974 14.9093 35.1132 14.5815C35.4547 14.2319 35.8699 13.9629 36.3285 13.7942C36.8976 13.5893 37.4997 13.4918 38.1044 13.5067H44.2592V15.6707H37.7642C37.5786 15.6694 37.3949 15.7087 37.226 15.7856C37.0612 15.8634 36.9127 15.9718 36.7884 16.105C36.661 16.2384 36.5578 16.393 36.4834 16.5618C36.4058 16.7328 36.3661 16.9186 36.3668 17.1064C36.3626 17.297 36.3969 17.4864 36.4677 17.6635C36.5385 17.8405 36.6443 18.0013 36.7789 18.1364C36.907 18.2722 37.0622 18.3797 37.2343 18.4521C37.4065 18.5244 37.5919 18.56 37.7786 18.5564H41.1914C42.3816 18.5564 43.3223 18.8577 44.0132 19.4603C44.7042 20.0629 45.0524 20.9594 45.0577 22.1497V22.2407Z" fill="white"/>
<path d="M57.2941 22.2407C57.2941 23.4331 56.9513 24.3311 56.2657 24.9348C55.58 25.5385 54.6218 25.8398 53.3911 25.8387H47.0542V23.6716H53.8031C53.9841 23.6752 54.1636 23.6379 54.3281 23.5624C54.4927 23.4869 54.638 23.3752 54.7533 23.2356C55.0051 22.9413 55.1388 22.564 55.1286 22.1768C55.1346 21.8013 55.0008 21.4371 54.7533 21.1547C54.638 21.0151 54.4927 20.9034 54.3281 20.8279C54.1636 20.7524 53.9841 20.7151 53.8031 20.7187H50.328C49.7068 20.7376 49.0882 20.6289 48.5106 20.3993C48.0533 20.2114 47.6436 19.9239 47.3113 19.5577C47.0128 19.2229 46.7871 18.8297 46.6485 18.4031C46.5138 17.996 46.4443 17.5702 46.4425 17.1415C46.4385 16.6644 46.5119 16.1897 46.6597 15.7361C46.8013 15.3038 47.0388 14.9091 47.3544 14.5815C47.6963 14.2309 48.112 13.9608 48.5713 13.791C49.1405 13.5863 49.7426 13.4889 50.3472 13.5035H56.5052V15.6706H50.0086C49.8235 15.6692 49.6403 15.7085 49.472 15.7856C49.3064 15.8628 49.1573 15.9713 49.0329 16.105C48.9059 16.2385 48.8033 16.393 48.7294 16.5618C48.6518 16.7328 48.6121 16.9185 48.6129 17.1063C48.6083 17.2968 48.6423 17.4863 48.7128 17.6633C48.7834 17.8403 48.889 18.0012 49.0233 18.1364C49.1514 18.2722 49.3066 18.3797 49.4788 18.4521C49.6509 18.5244 49.8363 18.5599 50.023 18.5564H53.4358C54.6271 18.5564 55.5678 18.8577 56.2577 19.4603C56.9476 20.0629 57.2931 20.9609 57.2941 22.1544V22.2407Z" fill="white"/>
<path d="M58.8701 13.5035H61.0356V25.8387H58.8701V13.5035Z" fill="white"/>
<path d="M78.9009 20.3786L74.3926 13.5881L77.3822 14.7284L79.9853 18.4446L81.3922 16.1657L83.3469 16.8604L81.068 20.2348V25.8387H78.9009V20.3786Z" fill="white"/>
<path d="M74.0542 25.7972H71.2738L69.4676 22.2838C68.8448 21.0637 68.4823 20.9103 66.2592 20.9103H65.2739V25.7892H62.7842V13.4923H65.2675V18.6251H66.2529C68.3289 18.6251 68.5605 18.4478 69.1945 17.2181L71.0917 13.4923H73.7843L73.722 13.6169L73.3547 14.3659L71.7577 17.5343C71.2371 18.5676 70.7021 19.2048 69.9691 19.6264C70.9368 20.0112 71.4575 20.7299 72.0611 21.9085L74.0542 25.7972Z" fill="white"/>
<path d="M32.8358 25.7971L0.341797 14.0815L14.2724 17.3506L30.4707 21.1514L32.8358 25.7971Z" fill="white"/>
<path d="M30.4707 20.9519L0.341797 13.882L10.1394 14.5415L28.0097 16.1066L30.4707 20.9519Z" fill="#F2F2F2"/>
<path d="M27.8947 15.8974L10.4795 14.3659L17.7746 0.74352C17.8698 0.564463 18.012 0.414692 18.1858 0.310251C18.3597 0.205811 18.5587 0.150635 18.7615 0.150635C18.9643 0.150635 19.1633 0.205811 19.3372 0.310251C19.511 0.414692 19.6532 0.564463 19.7484 0.74352L27.8947 15.8974Z" fill="white"/>
<path d="M9.37739 17.5599L5.61167 25.1296C5.59937 25.1547 5.58027 25.1758 5.55654 25.1904C5.53281 25.2051 5.50543 25.2128 5.47753 25.2127H5.39608C5.39326 25.2126 5.39049 25.2119 5.38801 25.2105C5.38554 25.2091 5.38342 25.2072 5.38186 25.2049C5.38029 25.2025 5.37931 25.1998 5.37901 25.197C5.3787 25.1942 5.37908 25.1914 5.38011 25.1887L9.14742 17.6062C9.15878 17.5828 9.17648 17.5631 9.1985 17.5492C9.22052 17.5354 9.24598 17.528 9.27199 17.5279H9.35024C9.35443 17.5271 9.35878 17.5274 9.36282 17.5288C9.36686 17.5302 9.37046 17.5326 9.37323 17.5359C9.376 17.5392 9.37785 17.5431 9.37858 17.5473C9.37931 17.5515 9.3789 17.5559 9.37739 17.5599Z" fill="white"/>
</svg>
