<svg width="156" height="48" viewBox="0 0 156 48" fill="none" xmlns="http://www.w3.org/2000/svg">
<path d="M83.5548 41.2768C83.5548 43.505 82.9132 45.183 81.63 46.311C80.3469 47.439 78.5564 48.002 76.2587 48H64.4058V43.9506H77.0166C77.3544 43.9572 77.6892 43.8873 77.9962 43.7462C78.3031 43.6052 78.5742 43.3965 78.7892 43.1359C79.2605 42.5862 79.5115 41.8813 79.4934 41.1575C79.5035 40.4556 79.2525 39.775 78.7892 39.2476C78.5742 38.987 78.3031 38.7784 77.9962 38.6373C77.6892 38.4962 77.3544 38.4264 77.0166 38.433H70.5262C69.3663 38.468 68.2116 38.2649 67.1333 37.8362C66.2783 37.4856 65.5126 36.9483 64.8922 36.2635C64.3345 35.6379 63.9128 34.9032 63.6538 34.106C63.402 33.3454 63.2721 32.5498 63.2689 31.7486C63.2618 30.8573 63.3978 29.9707 63.6717 29.1226C63.9381 28.3149 64.3828 27.5776 64.9728 26.9651C65.6108 26.3118 66.3867 25.8092 67.2437 25.4939C68.307 25.1111 69.4322 24.9289 70.562 24.9568H82.0627V29.0002H69.9264C69.5796 28.9979 69.2364 29.0713 68.9208 29.2151C68.6128 29.3604 68.3354 29.5629 68.1031 29.8119C67.865 30.0611 67.6721 30.3499 67.5332 30.6654C67.3882 30.9849 67.3138 31.332 67.3153 31.6829C67.3074 32.0391 67.3715 32.3932 67.5038 32.7239C67.6361 33.0547 67.8338 33.3553 68.0852 33.6077C68.3247 33.8615 68.6146 34.0624 68.9363 34.1975C69.258 34.3327 69.6044 34.3991 69.9533 34.3925H76.3303C78.5544 34.3925 80.3121 34.9555 81.6032 36.0815C82.8943 37.2075 83.5448 38.8826 83.5548 41.1067V41.2768Z" fill="#2C3E50"/>
<path d="M106.419 41.2768C106.419 43.5049 105.778 45.183 104.497 46.311C103.216 47.439 101.426 48.002 99.1258 48H87.2849V43.9506H99.8957C100.234 43.9574 100.569 43.8877 100.877 43.7466C101.184 43.6055 101.456 43.3967 101.671 43.1359C102.142 42.5859 102.392 41.881 102.373 41.1575C102.384 40.4559 102.134 39.7752 101.671 39.2476C101.456 38.9868 101.184 38.778 100.877 38.637C100.569 38.4959 100.234 38.4261 99.8957 38.433H93.4023C92.2415 38.4682 91.0857 38.2651 90.0064 37.8361C89.1519 37.4849 88.3863 36.9477 87.7654 36.2635C87.2076 35.6379 86.7859 34.9032 86.527 34.106C86.2751 33.3454 86.1452 32.5498 86.142 31.7486C86.1345 30.8571 86.2715 29.9702 86.5479 29.1226C86.8123 28.3147 87.2561 27.5772 87.8459 26.9651C88.4848 26.3099 89.2615 25.8053 90.1198 25.4879C91.1833 25.1056 92.3084 24.9234 93.4381 24.9508H104.945V29.0002H92.8055C92.4596 28.9976 92.1173 29.0709 91.8029 29.2151C91.4934 29.3593 91.2148 29.562 90.9822 29.8119C90.7451 30.0613 90.5532 30.3501 90.4152 30.6654C90.2702 30.9849 90.1959 31.332 90.1974 31.6829C90.1889 32.0389 90.2524 32.3929 90.3842 32.7237C90.516 33.0544 90.7133 33.3551 90.9643 33.6077C91.2038 33.8614 91.4937 34.0624 91.8154 34.1975C92.1371 34.3327 92.4835 34.3991 92.8324 34.3925H99.2094C101.436 34.3925 103.193 34.9555 104.482 36.0815C105.771 37.2075 106.417 38.8856 106.419 41.1157V41.2768Z" fill="#2C3E50"/>
<path d="M109.364 24.9508H113.411V48H109.364V24.9508Z" fill="#2C3E50"/>
<path d="M146.794 37.7974L138.37 25.109L143.956 27.2396L148.82 34.1836L151.449 29.9253L155.102 31.2234L150.843 37.5288V48H146.794V37.7974Z" fill="#2C3E50"/>
<path d="M137.737 47.9224H132.542L129.167 41.3574C128.003 39.0776 127.326 38.7911 123.172 38.7911H121.33V47.9075H116.678V24.9299H121.319V34.5208H123.16C127.039 34.5208 127.472 34.1896 128.656 31.8918L132.202 24.9299H137.233L137.116 25.1627L136.43 26.5622L133.446 32.4827C132.473 34.4134 131.473 35.6041 130.104 36.3919C131.912 37.111 132.885 38.4539 134.013 40.6561L137.737 47.9224Z" fill="#2C3E50"/>
<path d="M60.7175 47.9224L0 26.0311L26.0303 32.1395L56.298 39.2417L60.7175 47.9224Z" fill="url(#paint0_linear_208_712)"/>
<path d="M56.298 38.8687L0 25.6581L18.3075 26.8905L51.6995 29.8149L56.298 38.8687Z" fill="url(#paint1_linear_208_712)"/>
<path d="M51.4847 29.424L18.9431 26.5622L32.5744 1.10785C32.7524 0.773269 33.0181 0.493411 33.3429 0.298255C33.6678 0.1031 34.0396 0 34.4186 0C34.7976 0 35.1694 0.1031 35.4943 0.298255C35.8191 0.493411 36.0848 0.773269 36.2628 1.10785L51.4847 29.424Z" fill="url(#paint2_linear_208_712)"/>
<path d="M16.8841 32.5304L9.84754 46.675C9.82456 46.7218 9.78885 46.7612 9.74452 46.7887C9.70019 46.8161 9.64902 46.8305 9.59688 46.8302H9.44469C9.43941 46.8301 9.43424 46.8287 9.42961 46.8262C9.42498 46.8236 9.42104 46.82 9.41811 46.8156C9.41518 46.8112 9.41336 46.8062 9.41279 46.8009C9.41222 46.7957 9.41293 46.7904 9.41485 46.7855L16.4543 32.617C16.4756 32.5732 16.5086 32.5364 16.5498 32.5105C16.5909 32.4847 16.6385 32.4709 16.6871 32.4707H16.8333C16.8412 32.4692 16.8493 32.4697 16.8568 32.4723C16.8644 32.4749 16.8711 32.4795 16.8763 32.4856C16.8815 32.4917 16.8849 32.4991 16.8863 32.507C16.8876 32.5148 16.8869 32.5229 16.8841 32.5304Z" fill="url(#paint3_linear_208_712)"/>
<defs>
<linearGradient id="paint0_linear_208_712" x1="0" y1="36.9767" x2="60.7175" y2="36.9767" gradientUnits="userSpaceOnUse">
<stop stop-color="#1AE81A"/>
<stop offset="0.27" stop-color="#27C239"/>
<stop offset="0.77" stop-color="#3D816F"/>
<stop offset="1" stop-color="#466884"/>
</linearGradient>
<linearGradient id="paint1_linear_208_712" x1="0" y1="32.2648" x2="56.298" y2="32.2648" gradientUnits="userSpaceOnUse">
<stop stop-color="#4CAF50"/>
<stop offset="0.27" stop-color="#43B947"/>
<stop offset="0.72" stop-color="#2CD42D"/>
<stop offset="1" stop-color="#1AE81A"/>
</linearGradient>
<linearGradient id="paint2_linear_208_712" x1="18.9431" y1="14.7124" x2="51.4847" y2="14.7124" gradientUnits="userSpaceOnUse">
<stop stop-color="#1AE81A"/>
<stop offset="0.27" stop-color="#27C239"/>
<stop offset="0.77" stop-color="#3D816F"/>
<stop offset="1" stop-color="#466884"/>
</linearGradient>
<linearGradient id="paint3_linear_208_712" x1="9.4238" y1="39.6505" x2="16.89" y2="39.6505" gradientUnits="userSpaceOnUse">
<stop stop-color="#4CAF50"/>
<stop offset="0.27" stop-color="#43B947"/>
<stop offset="0.72" stop-color="#2CD42D"/>
<stop offset="1" stop-color="#1AE81A"/>
</linearGradient>
</defs>
</svg>
